/* XPM */
static const char * audit_xpm[] = {
/* columns rows colors chars-per-pixel */
"32 32 6 1",
"+ c cyan",
". c navy",
"X c red",
"o c yellow",
"O c green",
"  c None",
/* pixels */
"                                ",
"                                ",
"        XXXXXXXXXXXXXX          ",
"       XXXXXXXXXXXXXXXXX        ",
"      XXXXXXXXXXXXXXXXXXXX      ",
"      XXX                XXX    ",
"      XXX                XXX    ",
"      XXX                XXX    ",
"      XXX                XXX    ",
"      XXX                XXX    ",
"      XXX                XXX    ",
"      XXX                XXX    ",
"      XXX                XXX    ",
"      XXX                XXX    ",
"      XXXXXXXXXXXXXXXXXXXX      ",
"      XXXXXXXXXXXXXXXXXXX       ",
"      XXXXXXXXXXXXXXXXX         ",
"      XXX                       ",
"      XXX                       ",
"      XXX                       ",
"      XXX                       ",
"      XXX     OOO      OOO      ",
"      XXX   OO+++OO  OO+++OO    ",
"      XXX   OO+++OO  OO+++OO    ",
"      XXX   OO+++OO  OO+++OO    ",
"     XXXXX  OO+++OO  OO+++OO    ",
"            OO++++OOOO++++OO    ",
"            OO++++++++++++OO    ",
"            OO++++++++++++OO    ",
"             OO++++++++++OO     ",
"             OO++++++++++OO     ",
"              OOOOOOOOOOO       "
};
