<?xml version="1.0" standalone="no"?>
<!DOCTYPE svg PUBLIC "-//W3C//DTD SVG 1.1//EN" "http://www.w3.org/Graphics/SVG/1.1/DTD/svg11.dtd" >
<svg xmlns="http://www.w3.org/2000/svg">
<metadata>
Generated by SVGconv.
Copyright   : Copyright (C) 1993; Type Market Ltd. Moscow, 119136, Box 20; phone:(095)2879693
Foundry     : ParaType Ltd
</metadata>
<defs>
<font id="HeliosCondWeb-Bold" horiz-adv-x="480" >
<font-face units-per-em="1000" ascent="977" descent="269" />
<missing-glyph horiz-adv-x="500" />
<glyph unicode="&#32;" horiz-adv-x="240" />
<glyph unicode="&#33;" horiz-adv-x="191" d="M152 129v-129h-120v129zM152 722v-299l-17 -235h-79l-24 235l0 299z" />
<glyph unicode="&#34;" horiz-adv-x="362" d="M34 711h116v-260h-116zM208 451v260h116l0 -260z" />
<glyph unicode="&#35;" horiz-adv-x="455" d="M211 487h70l32 214h79l-26 -214h66v-92h-81l-7 -84h64v-92h-75l-29 -219h-83l28 219h-66l-31 -219h-84l30 219h-82v92h91l13 84h-85v92h95l30 214h83zM270 395h-66l-11 -84l65 0z" />
<glyph unicode="&#36;" horiz-adv-x="500" d="M161 252v-28q0 -38 8.5 -62.5q8.5 -24.5 22 -39q13.5 -14.5 31.5 -20q18 -5.5 38 -5.5q39 0 60 21.5q21 21.5 21 55.5q0 35 -18.5 59q-18.5 24 -56.5 49l-122 80q-108 70 -108 186q0 78 45.5 125.5q45.5 47.5 120.5 58.5l0 87h90v-87q85 -10 128 -64q43 -54 43 -152v-22h-131v8q0 66 -22.5 94.5q-22.5 28.5 -63.5 28.5q-29 0 -51 -15.5q-22 -15.5 -22 -45.5q0 -32 12 -50q12 -18 34 -32l140 -93q28 -19 51 -37q23 -18 39 -40.5q16 -22.5 24.5 -52.5q8.5 -30 8.5 -73q0 -88 -48 -139q-48 -51 -142 -59l0 -84h-90v88q-87 15 -130 75q-43 60 -43 157l0 28z" />
<glyph unicode="&#37;" horiz-adv-x="799" d="M173 721q52 0 82 -14.5q30 -14.5 45 -39q15 -24.5 18.5 -56q3.5 -31.5 3.5 -65.5q0 -35 -3.5 -66.5q-3.5 -31.5 -18.5 -56q-15 -24.5 -45 -39q-30 -14.5 -82 -14.5q-52 0 -81.5 14.5q-29.5 14.5 -44 39q-14.5 24.5 -18 56q-3.5 31.5 -3.5 66.5q0 34 3.5 65.5q3.5 31.5 18 56q14.5 24.5 44 39q29.5 14.5 81.5 14.5zt0 0zM175 651q-20 0 -31 -7.5q-11 -7.5 -16.5 -21q-5.5 -13.5 -7 -33q-1.5 -19.5 -1.5 -43.5q0 -24 1.5 -44q1.5 -20 7 -33.5q5.5 -13.5 16.5 -21q11 -7.5 31 -7.5q19 0 30 7.5q11 7.5 16 21q5 13.5 6.5 33.5q1.5 20 1.5 44q0 24 -1.5 43.5q-1.5 19.5 -7 33q-5.5 13.5 -16 21q-10.5 7.5 -29.5 7.5zt0 0zM197 0l323 735h67l-322 -735zM620 366q52 0 82 -14.5q30 -14.5 45 -39q15 -24.5 18.5 -56q3.5 -31.5 3.5 -65.5q0 -35 -3.5 -66.5q-3.5 -31.5 -18.5 -56q-15 -24.5 -45 -39q-30 -14.5 -82 -14.5q-52 0 -81.5 14.5q-29.5 14.5 -44 39q-14.5 24.5 -18 56q-3.5 31.5 -3.5 66.5q0 34 3.5 65.5q3.5 31.5 18 56q14.5 24.5 44 39q29.5 14.5 81.5 14.5zt0 0zM622 296q-20 0 -31 -7.5q-11 -7.5 -16.5 -21q-5.5 -13.5 -7 -33q-1.5 -19.5 -1.5 -43.5q0 -24 1.5 -44q1.5 -20 7 -33.5q5.5 -13.5 16.5 -21q11 -7.5 31 -7.5q19 0 30 7.5q11 7.5 16 21q5 13.5 6.5 33.5q1.5 20 1.5 44q0 24 -1.5 43.5q-1.5 19.5 -7 33q-5.5 13.5 -16 21t-29.5 7.5z" />
<glyph unicode="&#38;" horiz-adv-x="640" d="M293 500q20 16 38 37.5q18 21.5 18 50.5q0 25 -15.5 39.5q-15.5 14.5 -32.5 14.5q-18 0 -32 -9.5q-14 -9.5 -14 -35.5q0 -25 14 -50q14 -25 24 -47zt0 0zM438 255q11 23 16.5 60q5.5 37 5.5 71l107 0q0 -64 -15.5 -125q-15.5 -61 -47.5 -117l86 -144h-144l-26 48q-38 -36 -77.5 -48.5q-39.5 -12.5 -90.5 -12.5q-41 0 -76.5 16.5q-35.5 16.5 -61 45.5q-25.5 29 -40 68.5q-14.5 39.5 -14.5 85.5q0 40 9.5 72q9.5 32 27.5 59q18 27 43 50q25 23 56 45q-22 36 -39 74.5q-17 38.5 -17 81.5q0 42 14.5 71.5q14.5 29.5 38.5 48q24 18.5 53.5 26.5q29.5 8 59.5 8q28 0 55.5 -10q27.5 -10 48.5 -29q21 -19 34 -46.5q13 -27.5 13 -62.5q0 -60 -30 -105q-30 -45 -79 -75zM253 332q-9 -3 -21 -14q-12 -11 -22 -27.5q-10 -16.5 -17 -38.5q-7 -22 -7 -47q0 -20 7 -39.5q7 -19.5 20 -35.5q13 -16 30.5 -26q17.5 -10 38.5 -10q26 0 47 11.5q21 11.5 40 28.5z" />
<glyph unicode="&#39;" horiz-adv-x="210" d="M47 711h116v-260l-116 0z" />
<glyph unicode="&#40;" horiz-adv-x="292" d="M266 745q-19 -29 -37 -76.5q-18 -47.5 -32 -108.5q-14 -61 -22.5 -132.5q-8.5 -71.5 -8.5 -147.5q0 -116 23.5 -236q23.5 -120 76.5 -223l-85 0q-29 47 -54.5 101.5q-25.5 54.5 -44.5 114.5q-19 60 -29.5 125q-10.5 65 -10.5 133q0 109 32 223.5q32 114.5 107 226.5l85 0z" />
<glyph unicode="&#41;" horiz-adv-x="293" d="M98 745q75 -112 107 -226.5q32 -114.5 32 -223.5q0 -68 -11 -133q-11 -65 -29.5 -125q-18.5 -60 -44 -114.5q-25.5 -54.5 -54.5 -101.5l-85 0q53 103 76.5 223q23.5 120 23.5 236q0 76 -8.5 147.5q-8.5 71.5 -22.5 132.5q-14 61 -32 108.5q-18 47.5 -37 76.5z" />
<glyph unicode="&#42;" horiz-adv-x="378" d="M221 603l98 38l29 -77l-107 -30l71 -83l-71 -54l-60 92l-61 -92l-60 47l60 90l-105 30l31 77l99 -38v114l76 0z" />
<glyph unicode="&#43;" horiz-adv-x="487" d="M284 482v-182h168v-88h-168v-178h-88v178h-168v88h168l0 182z" />
<glyph unicode="&#44;" horiz-adv-x="163" d="M23 128h125v-142q0 -20 -8 -40.5q-8 -20.5 -21.5 -37q-13.5 -16.5 -33 -27.5q-19.5 -11 -41.5 -11h-8v47q9 0 19.5 2.5q10.5 2.5 19.5 11q9 8.5 15.5 25q6.5 16.5 6.5 44.5l-74 0z" />
<glyph unicode="&#45;" horiz-adv-x="325" d="M290 300v-88h-255l0 88z" />
<glyph unicode="&#46;" horiz-adv-x="166" d="M22 128h125v-128l-125 0z" />
<glyph unicode="&#47;" horiz-adv-x="343" d="M238 722h93l-227 -804l-91 0z" />
<glyph unicode="&#48;" horiz-adv-x="500" d="M252 722q91 0 144 -50q53 -50 53 -138v-359q0 -88 -53 -140q-53 -52 -144 -52q-42 0 -78.5 14q-36.5 14 -63.5 39.5q-27 25.5 -42.5 60.5q-15.5 35 -15.5 78v359q0 43 15.5 77.5q15.5 34.5 42.5 59q27 24.5 63.5 38q36.5 13.5 78.5 13.5zt0 0zM252 612q-29 0 -50.5 -17q-21.5 -17 -21.5 -49v-383q0 -32 21.5 -51q21.5 -19 50.5 -19q27 0 48 21q21 21 21 53v380q0 32 -21 48.5t-48 16.5z" />
<glyph unicode="&#49;" horiz-adv-x="500" d="M317 709v-709h-128v488h-163v97h17q80 0 124.5 36.5q44.5 36.5 56.5 87.5z" />
<glyph unicode="&#50;" horiz-adv-x="500" d="M434 0h-393v37q0 74 24 129.5q24 55.5 57.5 97q33.5 41.5 68.5 71q35 29.5 57 51.5q24 24 38.5 41.5q14.5 17.5 22.5 32.5q8 15 10.5 29.5q2.5 14.5 2.5 32.5q0 49 -19 69.5q-19 20.5 -53 20.5q-34 0 -53 -23.5q-19 -23.5 -19 -85.5v-39h-128v42q0 55 17.5 95.5q17.5 40.5 46 67.5q28.5 27 64.5 40q36 13 72 13q42 0 78.5 -13q36.5 -13 63.5 -38q27 -25 42.5 -60q15.5 -35 15.5 -78q0 -57 -24.5 -111q-24.5 -54 -70.5 -99q-28 -27 -56 -51q-28 -24 -52 -49.5q-24 -25.5 -40 -52.5q-16 -27 -20 -60l247 0z" />
<glyph unicode="&#51;" horiz-adv-x="500" d="M176 423h38q33 0 52 12q19 12 28.5 30q9.5 18 12 38.5q2.5 20.5 2.5 37.5q0 35 -14.5 54.5q-14.5 19.5 -49.5 19.5q-33 0 -51 -21.5q-18 -21.5 -18 -63.5v-24h-121v30q0 40 13 74.5q13 34.5 37.5 59q24.5 24.5 59.5 38.5q35 14 80 14q91 0 141.5 -46q50.5 -46 50.5 -131q0 -72 -26.5 -109q-26.5 -37 -74.5 -54q57 -13 84.5 -58.5q27.5 -45.5 27.5 -122.5q0 -116 -53.5 -167q-53.5 -51 -153.5 -51q-50 0 -85 15.5q-35 15.5 -57.5 41.5q-22.5 26 -33 61.5q-10.5 35.5 -10.5 76.5v41h121v-25q0 -45 15.5 -74.5q15.5 -29.5 53.5 -29.5q24 0 38 8.5q14 8.5 21.5 24q7.5 15.5 9.5 36.5q2 21 2 46q0 68 -19 94.5q-19 26.5 -64 26.5l-57 0z" />
<glyph unicode="&#52;" horiz-adv-x="500" d="M393 709v-456h64v-110h-64v-143h-128v143h-224v128l200 438zM265 546l-131 -293l131 0z" />
<glyph unicode="&#53;" horiz-adv-x="500" d="M413 709v-107h-234l-8 -153q24 25 49 35.5q25 10.5 51 10.5q88 0 131 -55q43 -55 43 -153v-69q0 -121 -46.5 -178q-46.5 -57 -149.5 -57q-97 0 -150.5 51q-53.5 51 -53.5 150v32h126q0 -38 4.5 -62.5q4.5 -24.5 13.5 -38.5q9 -14 22.5 -19.5q13.5 -5.5 31.5 -5.5q19 0 33 5q14 5 23 18.5q9 13.5 13.5 36q4.5 22.5 4.5 58.5v75q0 51 -20 76.5q-20 25.5 -57 25.5q-23 0 -40 -14q-17 -14 -24 -37l-123 0l15 375z" />
<glyph unicode="&#54;" horiz-adv-x="500" d="M315 554q0 61 -65 61q-32 0 -48.5 -21q-16.5 -21 -16.5 -75v-84q18 21 50.5 35.5q32.5 14.5 61.5 14.5q63 0 104.5 -41q41.5 -41 41.5 -119v-170q0 -45 -15 -77.5q-15 -32.5 -41.5 -53.5q-26.5 -21 -62.5 -31q-36 -10 -78 -10q-37 0 -71 10q-34 10 -60.5 31q-26.5 21 -42 53.5q-15.5 32.5 -15.5 78.5v368q0 42 12 78q12 36 36 62.5q24 26.5 59.5 42q35.5 15.5 82.5 15.5q44 0 80 -11.5q36 -11.5 62 -33.5q26 -22 40 -53q14 -31 14 -70zM250 375q-26 0 -45.5 -16.5q-19.5 -16.5 -19.5 -54.5v-142q0 -72 61 -72q31 0 50 18q19 18 19 55v143q0 34 -20.5 51.5t-44.5 17.5z" />
<glyph unicode="&#55;" horiz-adv-x="500" d="M454 709v-102q-28 -55 -56 -119.5q-28 -64.5 -51.5 -139.5q-23.5 -75 -40.5 -162q-17 -87 -23 -186l-142 0q9 82 27 165.5q18 83.5 42 161.5q24 78 53 148q29 70 60 124l-278 0l0 110z" />
<glyph unicode="&#56;" horiz-adv-x="500" d="M250 325q-35 0 -52.5 -25q-17.5 -25 -17.5 -72v-38q0 -100 70 -100q70 0 70 101v39q0 95 -70 95zt0 0zM250 615q-32 0 -47 -22q-15 -22 -15 -74q0 -93 62 -93q62 0 62 93q0 51 -14 73.5q-14 22.5 -48 22.5zt0 0zM149 381q-17 9 -32 22.5q-15 13.5 -26.5 33q-11.5 19.5 -18.5 46.5q-7 27 -7 63q0 46 14 79q14 33 39 54.5q25 21.5 59 32q34 10.5 73 10.5q39 0 73 -10.5q34 -10.5 59 -32q25 -21.5 39 -54.5q14 -33 14 -79q0 -72 -23 -109.5q-23 -37.5 -57 -55.5q48 -22 70.5 -64q22.5 -42 22.5 -114q0 -117 -47.5 -168.5q-47.5 -51.5 -151.5 -51.5q-102 0 -149.5 51.5q-47.5 51.5 -47.5 168.5q0 36 7.5 64q7.5 28 21 49.5q13.5 21.5 31 37t37.5 27.5z" />
<glyph unicode="&#57;" horiz-adv-x="500" d="M254 722q37 0 71 -10q34 -10 60 -31q26 -21 42 -53.5q16 -32.5 16 -78.5v-368q0 -42 -12.5 -78q-12.5 -36 -36.5 -62.5q-24 -26.5 -59.5 -42q-35.5 -15.5 -81.5 -15.5q-44 0 -80 11.5q-36 11.5 -62 33.5q-26 22 -40 53q-14 31 -14 70l128 0q0 -61 65 -61q32 0 48.5 21q16.5 21 16.5 75v84q-18 -21 -50.5 -35.5q-32.5 -14.5 -61.5 -14.5q-63 0 -104.5 41q-41.5 41 -41.5 119v170q0 45 15 77.5q15 32.5 41.5 53.5q26.5 21 62.5 31q36 10 78 10zt0 0zM254 615q-31 0 -50 -18q-19 -18 -19 -55v-143q0 -34 20.5 -51.5q20.5 -17.5 44.5 -17.5q26 0 45.5 16.5q19.5 16.5 19.5 54.5v142q0 72 -61 72z" />
<glyph unicode="&#58;" horiz-adv-x="190" d="M33 539h125v-128h-125zM33 128h125v-128l-125 0z" />
<glyph unicode="&#59;" horiz-adv-x="190" d="M33 539h125v-128h-125zM33 128h125v-142q0 -20 -8 -40.5q-8 -20.5 -21.5 -37q-13.5 -16.5 -33 -27.5q-19.5 -11 -41.5 -11h-8v47q9 0 19.5 2.5q10.5 2.5 19.5 11q9 8.5 15.5 25q6.5 16.5 6.5 44.5l-74 0z" />
<glyph unicode="&#60;" horiz-adv-x="460" d="M26 297l411 222v-109l-288 -160l288 -161v-101l-411 216z" />
<glyph unicode="&#61;" horiz-adv-x="482" d="M457 388v-88h-433v88zM457 212v-88h-433l0 88z" />
<glyph unicode="&#62;" horiz-adv-x="460" d="M325 261l-282 157v109l403 -221v-93l-403 -225l0 107z" />
<glyph unicode="&#63;" horiz-adv-x="439" d="M122 194q0 54 8 91.5q8 37.5 21 63.5q13 26 29 43.5q16 17.5 31 32.5q29 28 49.5 61q20.5 33 20.5 75q0 35 -19.5 51q-19.5 16 -47.5 16q-26 0 -43.5 -18q-17.5 -18 -17.5 -64v-24h-119v24q0 47 13.5 82.5q13.5 35.5 38 59q24.5 23.5 59 35.5q34.5 12 75.5 12q37 0 71 -10q34 -10 60.5 -29q26.5 -19 42 -47.5q15.5 -28.5 15.5 -64.5q0 -27 -1.5 -51.5q-1.5 -24.5 -9 -49q-7.5 -24.5 -24 -50q-16.5 -25.5 -47.5 -55.5q-35 -35 -57.5 -68.5q-22.5 -33.5 -22.5 -78.5v-37zM122 128h125v-128l-125 0z" />
<glyph unicode="&#64;" horiz-adv-x="975" d="M581 376q0 37 -22.5 61q-22.5 24 -57.5 24q-26 0 -47.5 -12.5q-21.5 -12.5 -37 -32q-15.5 -19.5 -24 -43.5q-8.5 -24 -8.5 -47q0 -39 20.5 -64q20.5 -25 57.5 -25q27 0 48.5 12.5q21.5 12.5 37.5 32.5q16 20 24.5 44.5q8.5 24.5 8.5 49.5zt0 0zM624 546h88q-20 -87 -32.5 -142q-12.5 -55 -20 -88q-7.5 -33 -10 -47.5q-2.5 -14.5 -2.5 -19.5q0 -8 3 -14.5q3 -6.5 12 -6.5q20 0 40 12q20 12 36.5 35q16.5 23 26.5 55.5q10 32.5 10 73.5q0 61 -21 108q-21 47 -58 79.5q-37 32.5 -86.5 49q-49.5 16.5 -107.5 16.5q-65 0 -117.5 -23q-52.5 -23 -89.5 -63.5q-37 -40.5 -57.5 -95q-20.5 -54.5 -20.5 -118.5q0 -67 22.5 -121.5q22.5 -54.5 62 -93.5q39.5 -39 94.5 -60q55 -21 120 -21q63 0 116.5 22q53.5 22 93.5 59l89 0q-53 -78 -132 -119.5q-79 -41.5 -173 -41.5q-81 0 -152.5 28.5q-71.5 28.5 -124.5 79q-53 50.5 -84 119.5q-31 69 -31 151q0 80 30.5 149q30.5 69 83 120q52.5 51 123 80q70.5 29 149.5 29q68 0 131.5 -22q63.5 -22 112.5 -62.5q49 -40.5 78.5 -97.5q29.5 -57 29.5 -127q0 -81 -30 -136.5q-30 -55.5 -71.5 -90q-41.5 -34.5 -84.5 -49.5q-43 -15 -69 -15q-22 0 -38.5 13q-16.5 13 -18.5 40l-2 1q-20 -22 -48 -38q-28 -16 -57 -16q-33 0 -62 14q-29 14 -51 38q-22 24 -35 55.5q-13 31.5 -13 66.5q0 47 15.5 91.5q15.5 44.5 43.5 79q28 34.5 67.5 55.5q39.5 21 87.5 21q38 0 68.5 -15q30.5 -15 52.5 -50z" />
<glyph unicode="&#65;" horiz-adv-x="539" d="M188 722h184l160 -722h-148l-34 188h-155l-43 -188h-147zM333 295l-55 336l-66 -336z" />
<glyph unicode="&#66;" horiz-adv-x="527" d="M187 429h72q45 0 65 25.5q20 25.5 20 72.5q0 46 -18 69q-18 23 -65 23h-74zM187 103h88q38 0 57 25.5q19 25.5 19 86.5q0 54 -19 82.5q-19 28.5 -57 28.5h-88zM50 722h253q48 0 81.5 -14.5q33.5 -14.5 55 -39q21.5 -24.5 31.5 -56.5q10 -32 10 -66q0 -26 -6.5 -52q-6.5 -26 -19.5 -48q-13 -22 -31 -38q-18 -16 -40 -20q54 -22 80.5 -62.5q26.5 -40.5 26.5 -111.5q0 -47 -10 -86q-10 -39 -30.5 -67.5q-20.5 -28.5 -51.5 -44.5q-31 -16 -73 -16l-276 0z" />
<glyph unicode="&#67;" horiz-adv-x="531" d="M349 487v16q0 68 -19 95q-19 27 -62 27q-44 0 -63.5 -27q-19.5 -27 -19.5 -95v-285q0 -71 19 -98q19 -27 63 -27q42 0 62 27.5q20 27.5 20 97.5v39h137v-31q0 -49 -10 -93q-10 -44 -35 -77.5q-25 -33.5 -67 -53q-42 -19.5 -106 -19.5q-68 0 -111 19.5q-43 19.5 -68 53q-25 33.5 -34.5 77q-9.5 43.5 -9.5 91.5v263q0 128 56.5 188q56.5 60 168.5 60q106 0 161 -56q55 -56 55 -156l0 -36z" />
<glyph unicode="&#68;" horiz-adv-x="560" d="M50 722h242q45 0 86 -14q41 -14 71.5 -50q30.5 -36 48.5 -99.5q18 -63.5 18 -162.5v-36q0 -61 -8 -124.5q-8 -63.5 -31 -116q-23 -52.5 -65.5 -86q-42.5 -33.5 -111.5 -33.5h-250zM187 107h86q33 0 53.5 20q20.5 20 31.5 54.5q11 34.5 14.5 81q3.5 46.5 3.5 99.5q0 133 -21.5 193q-21.5 60 -77.5 60l-90 0z" />
<glyph unicode="&#69;" horiz-adv-x="472" d="M436 722v-110h-249v-168h227v-110h-227v-224h249v-110h-386l0 722z" />
<glyph unicode="&#70;" horiz-adv-x="450" d="M429 722v-110h-242v-168h229v-110h-229v-334h-137l0 722z" />
<glyph unicode="&#71;" horiz-adv-x="556" d="M511 387v-387h-107v81q-11 -23 -24.5 -41.5q-13.5 -18.5 -31.5 -31q-18 -12.5 -42 -19q-24 -6.5 -56 -6.5q-41 0 -78.5 15q-37.5 15 -65.5 46.5q-28 31.5 -44.5 81q-16.5 49.5 -16.5 117.5v236q0 256 238 256q63 0 106.5 -19q43.5 -19 70.5 -50.5q27 -31.5 39 -72.5q12 -41 12 -85v-20h-137q0 74 -22 105.5q-22 31.5 -69 31.5q-53 0 -75.5 -32.5q-22.5 -32.5 -22.5 -104.5v-229q0 -85 21.5 -125.5q21.5 -40.5 75.5 -40.5q45 0 68.5 33q23.5 33 23.5 106v48h-91l0 107z" />
<glyph unicode="&#72;" horiz-adv-x="555" d="M187 444h181v278h137v-722h-137v334h-181v-334h-137v722l137 0z" />
<glyph unicode="&#73;" horiz-adv-x="237" d="M187 0h-137v722l137 0z" />
<glyph unicode="&#74;" horiz-adv-x="451" d="M401 722v-567q0 -80 -49.5 -126q-49.5 -46 -140.5 -46q-92 0 -137.5 42.5q-45.5 42.5 -45.5 143.5v59h134v-73q0 -37 14.5 -49.5q14.5 -12.5 34.5 -12.5q23 0 38 16q15 16 15 54l0 559z" />
<glyph unicode="&#75;" horiz-adv-x="536" d="M187 409l166 313h155l-183 -313l189 -409h-153l-120 288l-54 -71v-217h-137v722l137 0z" />
<glyph unicode="&#76;" horiz-adv-x="459" d="M187 110h249v-110h-386v722l137 0z" />
<glyph unicode="&#77;" horiz-adv-x="730" d="M269 722l96 -469l96 469h219v-722h-128v654h-1l-137 -654h-98l-137 653h-1v-653h-128l0 722z" />
<glyph unicode="&#78;" horiz-adv-x="560" d="M198 722l200 -525h1q-6 30 -9 64.5q-3 34.5 -5 69.5q-2 35 -2.5 69.5q-0.5 34.5 -0.5 65.5v256h128v-722h-148l-200 524h-1q6 -26 9 -61q3 -35 5 -72q2 -37 2.5 -72.5q0.5 -35.5 0.5 -62.5v-256h-128l0 722z" />
<glyph unicode="&#79;" horiz-adv-x="557" d="M45 488q0 68 17.5 115q17.5 47 48.5 76.5q31 29.5 74.5 42.5q43.5 13 94.5 13q52 0 95 -12.5q43 -12.5 73.5 -42q30.5 -29.5 47 -76.5q16.5 -47 16.5 -116v-262q0 -69 -16.5 -115.5q-16.5 -46.5 -47 -75q-30.5 -28.5 -73.5 -40.5q-43 -12 -95 -12q-51 0 -94.5 12.5q-43.5 12.5 -74.5 41q-31 28.5 -48.5 75q-17.5 46.5 -17.5 114.5zM280 625q-49 0 -72 -31.5q-23 -31.5 -23 -89.5v-295q0 -57 23 -86.5q23 -29.5 72 -29.5q45 0 68.5 29.5q23.5 29.5 23.5 86.5v293q0 58 -23.5 90.5t-68.5 32.5z" />
<glyph unicode="&#80;" horiz-adv-x="544" d="M187 0h-137v722h259q44 0 79 -16.5q35 -16.5 60 -45.5q25 -29 38 -67.5q13 -38.5 13 -81.5q0 -45 -13.5 -84.5q-13.5 -39.5 -38.5 -69q-25 -29.5 -60.5 -46.5q-35.5 -17 -79.5 -17h-120zM187 401h69q52 0 77.5 28q25.5 28 25.5 80q0 51 -25.5 78.5q-25.5 27.5 -77.5 27.5l-69 0z" />
<glyph unicode="&#81;" horiz-adv-x="562" d="M485 -58l-76 70q-27 -13 -59.5 -21q-32.5 -8 -69.5 -8q-51 0 -94.5 12.5q-43.5 12.5 -74.5 41.5q-31 29 -48.5 76q-17.5 47 -17.5 115v260q0 68 17.5 115q17.5 47 48.5 76.5q31 29.5 74.5 42.5q43.5 13 94.5 13q52 0 95 -12.5q43 -12.5 73.5 -42q30.5 -29.5 47 -76.5q16.5 -47 16.5 -116v-245q0 -52 -8 -97q-8 -45 -25 -73l71 -68zM348 197l21 -21q1 5 2 28q1 23 1 46v252q0 57 -23.5 90q-23.5 33 -68.5 33q-49 0 -72 -31q-23 -31 -23 -88v-297q0 -116 95 -116q8 0 18 2q10 2 15 6l-33 30z" />
<glyph unicode="&#82;" horiz-adv-x="561" d="M187 0h-137v722h285q42 0 75.5 -14.5q33.5 -14.5 57 -40q23.5 -25.5 36 -59.5q12.5 -34 12.5 -73q0 -81 -30.5 -122.5q-30.5 -41.5 -78.5 -48.5q30 -6 49 -19.5q19 -13.5 30 -31.5q11 -18 15.5 -38.5q4.5 -20.5 4.5 -39.5v-92q0 -25 0.5 -47q0.5 -22 4 -38.5q3.5 -16.5 10 -26q6.5 -9.5 18.5 -9.5l0 -22h-137q-20 17 -26.5 50q-6.5 33 -6.5 68v83q0 21 -4 40q-4 19 -13.5 33.5q-9.5 14.5 -25 23q-15.5 8.5 -39.5 8.5h-100zM187 409h92q18 0 35.5 5q17.5 5 31 17q13.5 12 22 32.5q8.5 20.5 8.5 51.5q0 59 -27 79.5q-27 20.5 -73 20.5l-89 0z" />
<glyph unicode="&#83;" horiz-adv-x="523" d="M340 494v8q0 66 -22.5 94.5q-22.5 28.5 -63.5 28.5q-29 0 -51 -15.5q-22 -15.5 -22 -45.5q0 -32 12 -50q12 -18 34 -32l140 -93q28 -19 51 -38q23 -19 39 -42q16 -23 24.5 -53q8.5 -30 8.5 -70q0 -96 -56.5 -149.5q-56.5 -53.5 -165.5 -53.5q-115 0 -173 62.5q-58 62.5 -58 174.5v28h131v-28q0 -38 8.5 -62.5q8.5 -24.5 22 -39q13.5 -14.5 31.5 -20q18 -5.5 38 -5.5q39 0 60 23.5q21 23.5 21 57.5q0 35 -18.5 59q-18.5 24 -56.5 49l-122 80q-108 70 -108 186q0 45 15.5 79.5q15.5 34.5 44 58.5q28.5 24 67.5 36.5q39 12.5 86 12.5q103 0 158.5 -55q55.5 -55 55.5 -164l0 -22z" />
<glyph unicode="&#84;" horiz-adv-x="513" d="M325 0h-137v612h-170v110h477v-110l-170 0z" />
<glyph unicode="&#85;" horiz-adv-x="557" d="M187 722v-508q0 -60 21.5 -88.5q21.5 -28.5 70.5 -28.5q51 0 71 28q20 28 20 89v508h137v-528q0 -98 -54 -152.5q-54 -54.5 -174 -54.5q-120 0 -174.5 53.5q-54.5 53.5 -54.5 153.5l0 528z" />
<glyph unicode="&#86;" horiz-adv-x="521" d="M157 722l105 -601h2l98 601h141l-141 -722h-197l-153 722z" />
<glyph unicode="&#87;" horiz-adv-x="800" d="M158 722l82 -603h1l90 603h146l90 -603h1l82 603h138l-116 -722h-193l-74 503h-1l-75 -503h-193l-116 722z" />
<glyph unicode="&#88;" horiz-adv-x="549" d="M181 722l93 -235l98 235h154l-178 -351l184 -371h-153l-105 266l-109 -266h-150l174 371l-167 351z" />
<glyph unicode="&#89;" horiz-adv-x="543" d="M173 722l96 -278l109 278h155l-195 -412v-310h-137v310l-190 412z" />
<glyph unicode="&#90;" horiz-adv-x="489" d="M440 722v-107l-263 -508h270v-107h-416v103l265 512h-252l0 107z" />
<glyph unicode="&#91;" horiz-adv-x="271" d="M245 722v-75h-85v-660h92v-75h-206l0 810z" />
<glyph unicode="&#92;" horiz-adv-x="343" d="M106 722l225 -804h-91l-227 804z" />
<glyph unicode="&#93;" horiz-adv-x="290" d="M237 722v-810h-206v75h92v660h-85l0 75z" />
<glyph unicode="&#94;" horiz-adv-x="514" d="M319 724l174 -365l-96 -47l-131 269l-137 -269l-95 47l180 365z" />
<glyph unicode="&#95;" horiz-adv-x="515" d="M500 -49v-60h-487l0 60z" />
<glyph unicode="&#96;" horiz-adv-x="318" d="M287 586h-98l-144 136l158 0z" />
<glyph unicode="&#97;" horiz-adv-x="477" d="M217 230q-23 -15 -32.5 -37q-9.5 -22 -9.5 -41q0 -31 12.5 -53q12.5 -22 41.5 -22q29 0 49 17.5q20 17.5 20 54.5v133zM55 378v27q0 33 13.5 61q13.5 28 38 49q24.5 21 58 33q33.5 12 73.5 12q40 0 74.5 -8q34.5 -8 60 -25q25.5 -17 40 -43.5q14.5 -26.5 14.5 -63.5v-340q0 -28 2.5 -47q2.5 -19 13.5 -33l-129 0q-6 9 -8 25q-2 16 -2 27q-18 -32 -44 -50q-26 -18 -75 -18q-61 0 -100.5 37q-39.5 37 -39.5 114q0 71 34 111q34 40 105 70q22 9 43 18.5q21 9.5 36.5 21q15.5 11.5 25 25q9.5 13.5 9.5 30.5q0 48 -59 48q-26 0 -45 -16.5q-19 -16.5 -19 -53.5l0 -11z" />
<glyph unicode="&#98;" horiz-adv-x="466" d="M234 459q-23 0 -42 -16q-19 -16 -19 -50v-246q0 -34 19 -50q19 -16 42 -16q24 0 41.5 16q17.5 16 17.5 48v250q0 32 -17.5 48q-17.5 16 -41.5 16zt0 0zM173 506q14 20 40.5 37q26.5 17 64.5 17q28 0 54 -8.5q26 -8.5 45.5 -27q19.5 -18.5 31.5 -47.5q12 -29 12 -70v-269q0 -39 -12 -68q-12 -29 -31.5 -48q-19.5 -19 -45.5 -28.5q-26 -9.5 -54 -9.5q-33 0 -63 20.5q-30 20.5 -42 51.5l0 -56h-123v722l123 0z" />
<glyph unicode="&#99;" horiz-adv-x="437" d="M273 348v62q0 25 -14 37q-14 12 -34 12q-23 0 -37.5 -13.5q-14.5 -13.5 -14.5 -42.5v-262q0 -29 14.5 -42.5q14.5 -13.5 37.5 -13.5q20 0 34 12q14 12 14 37v77h123v-83q0 -36 -15.5 -63q-15.5 -27 -40 -45q-24.5 -18 -55 -27q-30.5 -9 -60.5 -9q-40 0 -73 11q-33 11 -57 31.5q-24 20.5 -37 48.5q-13 28 -13 63v268q0 34 13 62.5q13 28.5 37 49q24 20.5 57 31.5q33 11 73 11q30 0 60.5 -9q30.5 -9 55 -27q24.5 -18 40 -45q15.5 -27 15.5 -63l0 -68z" />
<glyph unicode="&#100;" horiz-adv-x="466" d="M234 459q-23 0 -42 -16q-19 -16 -19 -50v-246q0 -34 19 -50q19 -16 42 -16q24 0 41.5 16q17.5 16 17.5 48v250q0 32 -17.5 48q-17.5 16 -41.5 16zt0 0zM293 722h123v-722h-123v56q-17 -32 -44.5 -52q-27.5 -20 -60.5 -20q-28 0 -54 9.5q-26 9.5 -45.5 28.5q-19.5 19 -31.5 48q-12 29 -12 68v269q0 41 12 70q12 29 31.5 47.5q19.5 18.5 45.5 27q26 8.5 54 8.5q38 0 64.5 -17q26.5 -17 40.5 -37z" />
<glyph unicode="&#101;" horiz-adv-x="466" d="M168 260v-119q0 -30 17.5 -45q17.5 -15 47.5 -15q30 0 47.5 15.5q17.5 15.5 17.5 44.5v31h123v-15q0 -46 -14 -79q-14 -33 -39 -54q-25 -21 -59.5 -30.5q-34.5 -9.5 -75.5 -9.5q-41 0 -75.5 9.5q-34.5 9.5 -59.5 30.5q-25 21 -39 53.5q-14 32.5 -14 79.5v230q0 46 14 79q14 33 39 54q25 21 59.5 30.5q34.5 9.5 75.5 9.5q41 0 75.5 -9.5q34.5 -9.5 59.5 -30.5q25 -21 39 -54q14 -33 14 -79v-127zM298 350v53q0 29 -17.5 44.5q-17.5 15.5 -47.5 15.5q-30 0 -47.5 -15q-17.5 -15 -17.5 -45l0 -53z" />
<glyph unicode="&#102;" horiz-adv-x="265" d="M65 546v55q0 22 4 44q4 22 18 39q14 17 41 27.5q27 10.5 73 10.5h38v-97q-30 0 -40.5 -6.5q-10.5 -6.5 -10.5 -28.5v-44h56v-90h-56v-456h-123v456h-52l0 90z" />
<glyph unicode="&#103;" horiz-adv-x="462" d="M227 459q-23 0 -42 -16q-19 -16 -19 -50v-246q0 -34 19 -50q19 -16 42 -16q24 0 41.5 16q17.5 16 17.5 48v250q0 32 -17.5 48q-17.5 16 -41.5 16zt0 0zM286 546h123v-562q0 -87 -40 -130q-40 -43 -136 -43q-88 0 -132.5 31q-44.5 31 -54.5 97l120 0q11 -31 59 -31q27 0 44 14q17 14 17 40v94q-17 -32 -44.5 -52q-27.5 -20 -60.5 -20q-28 0 -54 9.5q-26 9.5 -45.5 28.5q-19.5 19 -31.5 48q-12 29 -12 68v269q0 41 12 70q12 29 31.5 47.5q19.5 18.5 45.5 27q26 8.5 54 8.5q38 0 64.5 -17q26.5 -17 40.5 -37z" />
<glyph unicode="&#104;" horiz-adv-x="464" d="M173 501q14 20 40.5 39.5q26.5 19.5 64.5 19.5q28 0 53 -8.5q25 -8.5 43.5 -27q18.5 -18.5 29 -48q10.5 -29.5 10.5 -70.5v-406h-123v392q0 32 -16 49.5q-16 17.5 -45 17.5q-26 0 -41.5 -17.5q-15.5 -17.5 -15.5 -49.5v-392h-123v722l123 0z" />
<glyph unicode="&#105;" horiz-adv-x="223" d="M50 722h123v-123h-123zM173 0h-123v546l123 0z" />
<glyph unicode="&#106;" horiz-adv-x="223" d="M50 722h123v-123h-123zM173 546v-632q0 -28 -9 -46.5q-9 -18.5 -25.5 -30q-16.5 -11.5 -39 -16q-22.5 -4.5 -49.5 -4.5q-5 0 -12.5 0q-7.5 0 -15 0.5q-7.5 0.5 -13 1q-5.5 0.5 -6.5 0.5l0 95h17q14 0 22 9q8 9 8 38l0 585z" />
<glyph unicode="&#107;" horiz-adv-x="425" d="M173 343l113 203h129l-129 -220l129 -326h-137l-76 212l-29 -56v-156h-123v722l123 0z" />
<glyph unicode="&#108;" horiz-adv-x="223" d="M173 0h-123v722l123 0z" />
<glyph unicode="&#109;" horiz-adv-x="696" d="M170 546v-53q18 31 47.5 49q29.5 18 70.5 18q46 0 68 -15.5q22 -15.5 39 -48.5q14 27 46.5 45.5q32.5 18.5 71.5 18.5q28 0 52 -7.5q24 -7.5 42 -21.5q18 -14 28.5 -35.5q10.5 -21.5 10.5 -49.5v-446h-120v389q0 70 -63 70q-25 0 -40 -18q-15 -18 -15 -52v-389h-120v389q0 70 -63 70q-25 0 -40 -18q-15 -18 -15 -52v-389h-120l0 546z" />
<glyph unicode="&#110;" horiz-adv-x="464" d="M173 501q14 20 40.5 39.5q26.5 19.5 64.5 19.5q28 0 53 -8.5q25 -8.5 43.5 -27q18.5 -18.5 29 -48q10.5 -29.5 10.5 -70.5v-406h-123v392q0 32 -16 49.5q-16 17.5 -45 17.5q-26 0 -41.5 -17.5q-15.5 -17.5 -15.5 -49.5v-392h-123v546l123 0z" />
<glyph unicode="&#111;" horiz-adv-x="477" d="M239 560q54 0 90.5 -14.5q36.5 -14.5 59.5 -39q23 -24.5 33 -56.5q10 -32 10 -68v-220q0 -36 -10 -68q-10 -32 -33 -56.5q-23 -24.5 -59.5 -39q-36.5 -14.5 -90.5 -14.5q-55 0 -92 14.5q-37 14.5 -59.5 39q-22.5 24.5 -32.5 56.5q-10 32 -10 68v220q0 36 10 68q10 32 32.5 56.5q22.5 24.5 59.5 39q37 14.5 92 14.5zt0 0zM239 463q-29 0 -47.5 -13.5q-18.5 -13.5 -18.5 -51.5v-252q0 -37 19 -51q19 -14 48 -14q30 0 47 13.5q17 13.5 17 51.5v252q0 38 -17.5 51.5t-47.5 13.5z" />
<glyph unicode="&#112;" horiz-adv-x="466" d="M234 459q-23 0 -42 -16q-19 -16 -19 -50v-246q0 -34 19 -50q19 -16 42 -16q24 0 41.5 16q17.5 16 17.5 48v250q0 32 -17.5 48q-17.5 16 -41.5 16zt0 0zM173 546v-61q14 38 43.5 56.5q29.5 18.5 61.5 18.5q28 0 54 -8.5q26 -8.5 45.5 -27q19.5 -18.5 31.5 -47.5q12 -29 12 -70v-269q0 -39 -12 -68q-12 -29 -31.5 -48q-19.5 -19 -45.5 -28.5q-26 -9.5 -54 -9.5q-73 0 -105 74l0 -240h-123l0 728z" />
<glyph unicode="&#113;" horiz-adv-x="466" d="M234 459q-23 0 -42 -16q-19 -16 -19 -50v-246q0 -34 19 -50q19 -16 42 -16q24 0 41.5 16q17.5 16 17.5 48v250q0 32 -17.5 48q-17.5 16 -41.5 16zt0 0zM416 546v-728h-123v240q-20 -37 -48 -55.5q-28 -18.5 -57 -18.5q-28 0 -54 9.5q-26 9.5 -45.5 28.5q-19.5 19 -31.5 48q-12 29 -12 68v269q0 41 12 70q12 29 31.5 47.5q19.5 18.5 45.5 27q26 8.5 54 8.5q32 0 61.5 -18.5q29.5 -18.5 43.5 -56.5l0 61z" />
<glyph unicode="&#114;" horiz-adv-x="306" d="M168 546v-104h1q14 54 45.5 83q31.5 29 81.5 29l0 -136q-18 0 -39 -2.5q-21 -2.5 -40 -13.5q-19 -11 -31.5 -35.5q-12.5 -24.5 -12.5 -67.5v-299h-123l0 546z" />
<glyph unicode="&#115;" horiz-adv-x="445" d="M160 176v-30q0 -35 17.5 -50q17.5 -15 43.5 -15q24 0 42.5 11.5q18.5 11.5 18.5 39.5q0 23 -14 40.5q-14 17.5 -42 35.5l-101 64q-35 23 -58.5 56q-23.5 33 -23.5 86q0 36 14 63.5q14 27.5 38 45.5q24 18 56 27.5q32 9.5 68 9.5q40 0 73 -11.5q33 -11.5 56.5 -33q23.5 -21.5 36.5 -54q13 -32.5 13 -74.5v-11h-120v13q0 36 -16.5 55q-16.5 19 -42.5 19q-53 0 -53 -49q0 -17 9.5 -30q9.5 -13 36.5 -30l86 -54q19 -12 38 -27.5q19 -15.5 34.5 -36q15.5 -20.5 25 -47q9.5 -26.5 9.5 -59.5q0 -51 -19.5 -80q-19.5 -29 -48.5 -43.5q-29 -14.5 -62 -18.5q-33 -4 -59 -4q-35 0 -67 10.5q-32 10.5 -56 31.5q-24 21 -38.5 52q-14.5 31 -14.5 73l0 25z" />
<glyph unicode="&#116;" horiz-adv-x="264" d="M188 693v-147h56v-97h-56v-305q0 -30 10 -42q10 -12 46 -12l0 -93q-8 -2 -26 -3q-18 -1 -35 -1q-56 0 -87 24.5q-31 24.5 -31 80.5v351h-52v97h52l0 147z" />
<glyph unicode="&#117;" horiz-adv-x="468" d="M175 546v-394q0 -67 59 -67q30 0 44.5 17q14.5 17 14.5 49v395h123v-546h-117v56q-19 -35 -45 -53.5q-26 -18.5 -66 -18.5q-28 0 -53 9q-25 9 -43.5 28q-18.5 19 -29 48.5q-10.5 29.5 -10.5 70.5l0 406z" />
<glyph unicode="&#118;" horiz-adv-x="436" d="M137 546l81 -443l81 443h130l-127 -546h-168l-127 546z" />
<glyph unicode="&#119;" horiz-adv-x="620" d="M132 546l63 -427h1l69 427h88l69 -427h1l63 427h127l-105 -546h-149l-50 326h-1l-49 -326h-149l-105 546z" />
<glyph unicode="&#120;" horiz-adv-x="423" d="M151 546l62 -151l62 151h136l-136 -273l143 -273h-143l-62 156l-62 -156h-143l143 273l-136 273z" />
<glyph unicode="&#121;" horiz-adv-x="434" d="M145 546l73 -419h2l70 419h129l-145 -615q-8 -34 -19 -56q-11 -22 -26.5 -34.5q-15.5 -12.5 -36 -17.5q-20.5 -5 -48.5 -5q-18 0 -33 1q-15 1 -32 3l0 93h45q14 0 20.5 10.5q6.5 10.5 6.5 25.5q0 3 -6.5 30.5q-6.5 27.5 -22.5 94.5q-16 67 -43.5 180.5q-27.5 113.5 -70.5 289.5z" />
<glyph unicode="&#122;" horiz-adv-x="388" d="M356 546v-97l-186 -352h194v-97h-332v103l187 346h-187l0 97z" />
<glyph unicode="&#123;" horiz-adv-x="294" d="M17 329q11 3 24 8q13 5 24.5 15q11.5 10 19 26q7.5 16 7.5 42v162q0 46 10.5 75q10.5 29 28 45q17.5 16 39.5 21.5q22 5.5 45 5.5q14 0 27.5 -1q13.5 -1 21.5 -3q-21 -8 -33 -19q-12 -11 -18 -23q-6 -12 -7.5 -24q-1.5 -12 -1.5 -24v-209q0 -33 -16 -56.5q-16 -23.5 -48 -40.5q12 -3 23.5 -12.5q11.5 -9.5 20.5 -23.5q9 -14 14.5 -32q5.5 -18 5.5 -38v-200q0 -37 17.5 -64q17.5 -27 52.5 -37q-32 -3 -57 -3q-40 0 -64.5 10q-24.5 10 -38 25.5q-13.5 15.5 -18 36q-4.5 20.5 -4.5 41.5v183q0 15 -2 31.5q-2 16.5 -9.5 31.5q-7.5 15 -22.5 28.5t-41 22.5z" />
<glyph unicode="&#124;" horiz-adv-x="183" d="M49 722h88v-722l-88 0z" />
<glyph unicode="&#125;" horiz-adv-x="294" d="M273 329q-26 -9 -41 -22.5q-15 -13.5 -22.5 -28.5q-7.5 -15 -9.5 -31.5q-2 -16.5 -2 -31.5v-183q0 -21 -4.5 -41.5q-4.5 -20.5 -18 -36q-13.5 -15.5 -38 -25.5q-24.5 -10 -64.5 -10q-26 0 -57 3q35 10 52.5 37q17.5 27 17.5 64v200q0 20 5.5 38q5.5 18 14.5 32q9 14 20.5 23.5q11.5 9.5 23.5 12.5q-32 17 -48 40.5q-16 23.5 -16 56.5v209q0 12 -1.5 25q-1.5 13 -7.5 25q-6 12 -18 22.5q-12 10.5 -33 17.5q8 2 21.5 3q13.5 1 27.5 1q23 0 45 -5.5q22 -5.5 39.5 -21.5q17.5 -16 28 -45q10.5 -29 10.5 -75v-162q0 -26 7.5 -42q7.5 -16 18.5 -26q11 -10 24.5 -15t24.5 -8z" />
<glyph unicode="&#126;" horiz-adv-x="468" d="M14 228q32 63 59 92q27 29 65 29q34 0 60.5 -10q26.5 -10 47.5 -21.5q21 -11.5 38.5 -21.5q17.5 -10 33.5 -10q17 0 35.5 16.5q18.5 16.5 38.5 55.5l56 -68q-27 -65 -61 -91.5q-34 -26.5 -69 -26.5q-24 0 -48.5 9.5q-24.5 9.5 -47 21.5q-22.5 12 -43.5 21.5q-21 9.5 -38 9.5q-16 0 -26.5 -7.5q-10.5 -7.5 -18.5 -18.5q-8 -11 -14.5 -24q-6.5 -13 -13.5 -24z" />
<glyph unicode="&#160;" horiz-adv-x="240" />
<glyph unicode="&#161;" horiz-adv-x="191" d="M32 593v129h120v-129zM32 0v299l17 235h79l24 -235l0 -299z" />
<glyph unicode="&#162;" horiz-adv-x="500" d="M287 558q27 -4 52 -14.5q25 -10.5 45 -28.5q20 -18 32 -42.5q12 -24.5 12 -56.5v-68h-123v62q0 25 -14 37q-14 12 -34 12q-23 0 -37.5 -13.5q-14.5 -13.5 -14.5 -42.5v-262q0 -29 14.5 -42.5q14.5 -13.5 37.5 -13.5q20 0 34 12q14 12 14 37v77h123v-83q0 -32 -12 -56.5q-12 -24.5 -32 -42.5q-20 -18 -45 -28.5q-25 -10.5 -52 -14.5l0 -92h-60v92q-69 8 -109.5 48.5q-40.5 40.5 -40.5 103.5v268q0 63 40.5 103.5q40.5 40.5 109.5 48.5l0 92l60 0z" />
<glyph unicode="&#163;" horiz-adv-x="500" d="M30 75q49 34 75.5 78.5q26.5 44.5 26.5 89.5q0 29 -9 71l-93 0v70h62q-23 37 -34.5 70q-11.5 33 -11.5 80q0 46 14.5 83q14.5 37 41.5 63.5q27 26.5 66 40.5q39 14 87 14q101 0 155 -49.5q54 -49.5 54 -148.5v-32h-123v17q0 57 -22 83.5q-22 26.5 -64 26.5q-37 0 -59 -26q-22 -26 -22 -77q0 -32 13.5 -65q13.5 -33 37.5 -80l142 0v-70h-118q6 -21 6 -42q0 -93 -110 -185l1 0q25 16 50.5 22q25.5 6 45.5 6q15 0 31.5 -3.5q16.5 -3.5 33 -7.5q16.5 -4 32 -7.5q15.5 -3.5 27.5 -3.5q19 0 39 9.5q20 9.5 43 25.5l29 -109q-50 -36 -119 -36q-25 0 -48.5 4.5q-23.5 4.5 -46.5 10q-23 5.5 -45 10q-22 4.5 -43 4.5q-46 0 -108 -31z" />
<glyph unicode="&#164;" horiz-adv-x="606" d="M184 603q25 18 54 28.5q29 10.5 65 10.5q67 0 121 -39l99 99l51 -52l-99 -100q18 -26 28.5 -55q10.5 -29 10.5 -63q0 -62 -39 -118l99 -100l-51 -51l-99 99q-25 -18 -53.5 -28.5q-28.5 -10.5 -64.5 -10.5q-70 0 -122 39l-100 -99l-51 51l99 100q-38 53 -38 118q0 34 10 63q10 29 28 55l-99 100l51 52zM304 567q-28 0 -52.5 -11q-24.5 -11 -43 -29.5q-18.5 -18.5 -29 -43q-10.5 -24.5 -10.5 -51.5q0 -28 10.5 -52.5q10.5 -24.5 29 -42.5q18.5 -18 43 -28.5q24.5 -10.5 52.5 -10.5q28 0 52.5 10.5q24.5 10.5 43 28.5q18.5 18 29 42.5q10.5 24.5 10.5 52.5q0 27 -10.5 51.5q-10.5 24.5 -29 43q-18.5 18.5 -43 29.5t-52.5 11z" />
<glyph unicode="&#165;" horiz-adv-x="500" d="M151 722l96 -278l109 278h155l-145 -308h125v-90h-167l-8 -14v-82h175v-90h-175v-138h-137v138h-175v90h175v82l-9 14h-166v90h125l-140 308z" />
<glyph unicode="&#166;" horiz-adv-x="183" d="M49 722h88v-282h-88zM49 282h88v-282l-88 0z" />
<glyph unicode="&#167;" horiz-adv-x="504" d="M129 463q-21 14 -35 44.5q-14 30.5 -14 67.5q0 39 15 69.5q15 30.5 40 51.5q25 21 57.5 32q32.5 11 67.5 11q28 0 57.5 -7.5q29.5 -7.5 55 -26.5q25.5 -19 43.5 -50.5q18 -31.5 23 -80.5l-122 0q0 34 -19 49q-19 15 -41 15q-22 0 -41 -14q-19 -14 -19 -36q0 -17 30 -52q30 -35 92 -78q41 -29 68.5 -51q27.5 -22 44 -43q16.5 -21 23 -44.5q6.5 -23.5 6.5 -54.5q0 -38 -19.5 -76q-19.5 -38 -63.5 -59q37 -39 49 -79q12 -40 12 -86q0 -34 -15 -60q-15 -26 -41 -44q-26 -18 -61 -27q-35 -9 -75 -9q-29 0 -62 8q-33 8 -61 28.5q-28 20.5 -46 56q-18 35.5 -18 89.5l123 0q0 -23 6 -39q6 -16 16 -26.5q10 -10.5 21.5 -15q11.5 -4.5 23.5 -4.5q12 0 24 5q12 5 21.5 14q9.5 9 15.5 20.5q6 11.5 6 24.5q0 27 -24 53q-24 26 -59 53.5q-35 27.5 -75.5 57q-40.5 29.5 -73.5 63.5q-18 19 -27 46q-9 27 -9 56q0 41 19 81.5q19 40.5 61 66.5zt0 0zM197 396q-17 -7 -27.5 -24.5q-10.5 -17.5 -10.5 -34.5q0 -11 4 -21.5q4 -10.5 12 -17.5l129 -109q20 0 32 18.5q12 18.5 12 38.5q0 12 -6.5 25q-6.5 13 -14.5 19z" />
<glyph unicode="&#168;" horiz-adv-x="466" d="M92 722h109v-109h-109zM269 722h109v-109l-109 0z" />
<glyph unicode="&#169;" horiz-adv-x="737" d="M749 360q0 -90 -31.5 -160q-31.5 -70 -84 -119q-52.5 -49 -121 -74.5q-68.5 -25.5 -143.5 -25.5q-75 0 -144 25.5q-69 25.5 -121.5 74.5q-52.5 49 -83.5 119q-31 70 -31 160q0 90 31 160q31 70 83.5 118q52.5 48 121.5 73.5q69 25.5 144 25.5q75 0 143.5 -25.5q68.5 -25.5 121 -73.5q52.5 -48 84 -118q31.5 -70 31.5 -160zt0 0zM640 360q0 65 -21.5 118.5q-21.5 53.5 -58.5 91.5q-37 38 -86.5 59q-49.5 21 -104.5 21q-56 0 -105.5 -21q-49.5 -21 -86.5 -59q-37 -38 -58 -91.5q-21 -53.5 -21 -118.5q0 -66 21 -119.5q21 -53.5 58 -92q37 -38.5 86.5 -59.5q49.5 -21 105.5 -21q55 0 104.5 21q49.5 21 86.5 59.5q37 38.5 58.5 92q21.5 53.5 21.5 119.5zt0 0zM563 303q-6 -38 -22.5 -67q-16.5 -29 -40.5 -49q-24 -20 -53.5 -30.5q-29.5 -10.5 -62.5 -10.5q-47 0 -85.5 16.5q-38.5 16.5 -65.5 46q-27 29.5 -42 69q-15 39.5 -15 85.5q0 46 14 86q14 40 41 68.5q27 28.5 65 45q38 16.5 86 16.5q68 0 116.5 -38.5q48.5 -38.5 60.5 -114.5l-86 0q-7 35 -33 50.5q-26 15.5 -58 15.5q-49 0 -76 -34.5q-27 -34.5 -27 -92.5q0 -28 7.5 -52q7.5 -24 21.5 -42q14 -18 33.5 -28q19.5 -10 42.5 -10q37 0 61.5 17.5q24.5 17.5 27.5 52.5z" />
<glyph unicode="&#170;" horiz-adv-x="399" d="M86 610q0 15 4 34.5q4 19.5 17 36q13 16.5 35 28q22 11.5 58 11.5q42 0 64.5 -13q22.5 -13 33 -31q10.5 -18 12.5 -37.5q2 -19.5 2 -32.5l-2 -139q0 -22 2 -36.5q2 -14.5 13 -21.5l0 -5h-77l-6 30h-1q-23 -29 -44 -35q-21 -6 -38 -6q-25 0 -41.5 7.5q-16.5 7.5 -26 20q-9.5 12.5 -13.5 28q-4 15.5 -4 32.5q0 43 22.5 65q22.5 22 67.5 31q28 5 43.5 7q15.5 2 22.5 4q7 2 8 6.5q1 4.5 1 15.5v9q0 15 -5.5 23.5q-5.5 8.5 -12.5 12q-7 3.5 -13 4q-6 0.5 -8 0.5q-5 0 -13 -1.5q-8 -1.5 -15 -6.5q-7 -5 -12 -14.5q-5 -9.5 -5 -26.5zM240 549q-6 -2 -7.5 -4q-1.5 -2 -6.5 -4q-4 -2 -10.5 -3.5q-6.5 -1.5 -23.5 -4.5q-5 -1 -12.5 -3q-7.5 -2 -14 -6.5q-6.5 -4.5 -11.5 -13q-5 -8.5 -5 -21.5q0 -20 13 -27.5q13 -7.5 24 -7.5q6 0 15 3q9 3 18 11.5q9 8.5 15 23q6 14.5 6 38.5zM78 341h239v-48l-239 0z" />
<glyph unicode="&#171;" horiz-adv-x="372" d="M353 320l-100 -66l100 -87v-107l-151 137v102l151 126zM172 425v-105l-100 -66l100 -87v-107l-149 137l0 102z" />
<glyph unicode="&#172;" horiz-adv-x="484" d="M453 300v-262h-88v174h-342l0 88z" />
<glyph unicode="&#173;" horiz-adv-x="325" d="M290 300v-88h-255l0 88z" />
<glyph unicode="&#174;" horiz-adv-x="737" d="M306 156h-87v407h152q79 0 123 -26.5q44 -26.5 44 -96.5q0 -28 -7.5 -47.5q-7.5 -19.5 -21 -32q-13.5 -12.5 -31.5 -19q-18 -6.5 -38 -7.5l104 -178h-103l-94 171h-41zM306 396h77q29 0 45.5 9.5q16.5 9.5 16.5 43.5q0 16 -7.5 25q-7.5 9 -19 13.5q-11.5 4.5 -25.5 5.5q-14 1 -26 1h-61zM748 359q0 -90 -31 -160q-31 -70 -83.5 -118.5q-52.5 -48.5 -121 -74q-68.5 -25.5 -143.5 -25.5q-75 0 -144 25.5q-69 25.5 -121.5 74q-52.5 48.5 -83.5 118.5q-31 70 -31 160q0 90 31 160q31 70 83.5 118.5q52.5 48.5 121.5 74q69 25.5 144 25.5q75 0 143.5 -25.5q68.5 -25.5 121 -74q52.5 -48.5 83.5 -118.5q31 -70 31 -160zt0 0zM639 359q0 65 -21.5 118.5q-21.5 53.5 -58.5 91.5q-37 38 -86 59q-49 21 -104 21q-56 0 -105.5 -21q-49.5 -21 -86.5 -59q-37 -38 -58 -91.5q-21 -53.5 -21 -118.5q0 -65 21 -119q21 -54 58 -92q37 -38 86.5 -59q49.5 -21 105.5 -21q54 0 103 21q49 21 86 59q37 38 59 92t22 119z" />
<glyph unicode="&#175;" horiz-adv-x="289" d="M261 692v-79h-226l0 79z" />
<glyph unicode="&#176;" horiz-adv-x="384" d="M327 591q0 -30 -11.5 -56.5q-11.5 -26.5 -31 -46q-19.5 -19.5 -45.5 -30.5q-26 -11 -56 -11q-30 0 -56.5 11q-26.5 11 -46 30.5q-19.5 19.5 -30.5 46q-11 26.5 -11 56.5q0 31 11 57q11 26 30.5 45.5q19.5 19.5 46 30.5q26.5 11 56.5 11q30 0 56 -11.5q26 -11.5 45.5 -31q19.5 -19.5 31 -45.5q11.5 -26 11.5 -56zt0 0zM115 591q0 -29 20 -48q20 -19 49 -19q28 0 47.5 19q19.5 19 19.5 48q0 28 -19.5 47.5q-19.5 19.5 -48.5 19.5q-28 0 -48 -19.5t-20 -47.5z" />
<glyph unicode="&#177;" horiz-adv-x="487" d="M284 638v-162h168v-88h-168v-158h-88v158h-168v88h168v162zM453 158v-88h-424l0 88z" />
<glyph unicode="&#180;" horiz-adv-x="318" d="M287 722l-144 -136h-98l84 136z" />
<glyph unicode="&#181;" horiz-adv-x="540" d="M173 547v-329q0 -50 21 -80.5q21 -30.5 71 -30.5q53 0 77.5 28.5q24.5 28.5 24.5 82.5v329h123v-547h-117v56q-22 -42 -51 -57q-29 -15 -56 -15q-35 0 -55.5 8.5q-20.5 8.5 -37.5 21.5l0 -203h-123l0 736z" />
<glyph unicode="&#182;" horiz-adv-x="540" d="M183 391q-39 0 -69 15q-30 15 -50.5 39.5q-20.5 24.5 -31 55.5q-10.5 31 -10.5 62q0 33 10 64q10 31 30.5 55q20.5 24 50.5 38.5q30 14.5 70 14.5h335v-117h-47v-717h-113v717h-62v-717h-113l0 490z" />
<glyph unicode="&#183;" horiz-adv-x="319" d="M97 249h123v-123l-123 0z" />
<glyph unicode="&#184;" horiz-adv-x="437" d="M249 0v-37q43 -2 65 -24q22 -22 22 -59q0 -43 -28.5 -67q-28.5 -24 -82.5 -24q-19 0 -39.5 2q-20.5 2 -37.5 6l0 60q17 -5 36 -6.5q19 -1.5 33 -1.5q37 0 37 32q0 26 -46 26h-9l0 93z" />
<glyph unicode="&#186;" horiz-adv-x="416" d="M208 393q-63 0 -98.5 43q-35.5 43 -35.5 121q0 77 35.5 120q35.5 43 98.5 43q63 0 98.5 -43q35.5 -43 35.5 -120q0 -78 -35.5 -121q-35.5 -43 -98.5 -43zt0 0zM208 454q19 0 30.5 10.5q11.5 10.5 17.5 26.5q6 16 8 33.5q2 17.5 2 32.5q0 14 -2 31.5q-2 17.5 -8 33.5q-6 16 -17.5 26.5q-11.5 10.5 -30.5 10.5q-20 0 -31.5 -10.5q-11.5 -10.5 -17.5 -26.5q-6 -16 -7.5 -33.5q-1.5 -17.5 -1.5 -31.5q0 -15 1.5 -32.5q1.5 -17.5 7.5 -33.5q6 -16 17.5 -26.5q11.5 -10.5 31.5 -10.5zt0 0zM90 341h238v-48l-238 0z" />
<glyph unicode="&#187;" horiz-adv-x="377" d="M362 304v-98l-151 -130v105l91 79l-91 68v107zM28 435l151 -131v-98l-151 -130v105l91 79l-91 68z" />
<glyph unicode="&#191;" horiz-adv-x="439" d="M320 541q0 -54 -8 -91.5q-8 -37.5 -21 -63.5q-13 -26 -29 -43.5q-16 -17.5 -31 -32.5q-29 -28 -49.5 -61q-20.5 -33 -20.5 -75q0 -35 19.5 -51q19.5 -16 47.5 -16q26 0 43.5 18q17.5 18 17.5 64v24h119v-24q0 -47 -13.5 -82.5q-13.5 -35.5 -38 -59q-24.5 -23.5 -59 -35.5q-34.5 -12 -75.5 -12q-37 0 -71 10q-34 10 -60.5 29q-26.5 19 -42 47.5q-15.5 28.5 -15.5 64.5q0 27 1.5 51.5q1.5 24.5 9 49q7.5 24.5 24 50q16.5 25.5 47.5 55.5q35 35 57.5 68.5q22.5 33.5 22.5 78.5v37zM320 607h-125v128l125 0z" />
<glyph unicode="&#192;" horiz-adv-x="539" d="M188 722h184l160 -722h-148l-34 188h-155l-43 -188h-147zM333 295l-55 336l-66 -336zM330 780h-100l-173 164l172 0z" />
<glyph unicode="&#193;" horiz-adv-x="539" d="M188 722h184l160 -722h-148l-34 188h-155l-43 -188h-147zM333 295l-55 336l-66 -336zM319 944h172l-173 -164l-100 0z" />
<glyph unicode="&#194;" horiz-adv-x="539" d="M188 722h184l160 -722h-148l-34 188h-155l-43 -188h-147zM333 295l-55 336l-66 -336zM457 780h-100l-79 97l-79 -97h-100l111 164l136 0z" />
<glyph unicode="&#195;" horiz-adv-x="539" d="M188 722h184l160 -722h-148l-34 188h-155l-43 -188h-147zM333 295l-55 336l-66 -336zM114 777q23 136 104 136q16 0 33 -4.5q17 -4.5 33.5 -9.5q16.5 -5 32 -9.5q15.5 -4.5 29.5 -4.5q36 0 45 45l51 0q-10 -69 -39 -104q-29 -35 -70 -35q-10 0 -27 4.5q-17 4.5 -35 9.5q-18 5 -34 9.5q-16 4.5 -24 4.5q-39 0 -48 -42z" />
<glyph unicode="&#196;" horiz-adv-x="539" d="M188 722h184l160 -722h-148l-34 188h-155l-43 -188h-147zM333 295l-55 336l-66 -336zM136 893h109v-109h-109zM320 893h109v-109l-109 0z" />
<glyph unicode="&#197;" horiz-adv-x="539" d="M188 722h184l160 -722h-148l-34 188h-155l-43 -188h-147zM333 295l-55 336l-66 -336zM176 875q0 43 29.5 72.5q29.5 29.5 73.5 29.5q43 0 72 -29.5q29 -29.5 29 -72.5q0 -22 -8 -41q-8 -19 -21.5 -33q-13.5 -14 -32 -22q-18.5 -8 -39.5 -8q-44 0 -73.5 30q-29.5 30 -29.5 74zt0 0zM233 875q0 -24 13 -35.5q13 -11.5 33 -11.5q20 0 32 11.5q12 11.5 12 35.5q0 20 -12.5 32.5q-12.5 12.5 -31.5 12.5q-20 0 -33 -12t-13 -33z" />
<glyph unicode="&#198;" horiz-adv-x="735" d="M699 722v-110h-249v-168h227v-110h-227v-224h249v-110h-386v188h-118l-43 -188h-147l183 722zM313 295v317h-38l-63 -317z" />
<glyph unicode="&#199;" horiz-adv-x="531" d="M349 487v16q0 68 -19 95q-19 27 -62 27q-44 0 -63.5 -27q-19.5 -27 -19.5 -95v-285q0 -71 19 -98q19 -27 63 -27q42 0 62 27.5q20 27.5 20 97.5v39h137v-31q0 -47 -9 -88.5q-9 -41.5 -30.5 -74.5q-21.5 -33 -58.5 -54q-37 -21 -92 -25l0 -33q52 -3 78.5 -29q26.5 -26 26.5 -71q0 -51 -34.5 -80q-34.5 -29 -98.5 -29q-23 0 -48 2.5q-25 2.5 -45 7.5l0 72q21 -6 43.5 -8q22.5 -2 39.5 -2q44 0 44 38q0 32 -55 32h-11v100q-57 5 -94 26q-37 21 -58.5 53.5q-21.5 32.5 -30 74q-8.5 41.5 -8.5 86.5v263q0 128 56.5 188q56.5 60 168.5 60q106 0 161 -56q55 -56 55 -156l0 -36z" />
<glyph unicode="&#200;" horiz-adv-x="472" d="M436 722v-110h-249v-168h227v-110h-227v-224h249v-110h-386v722zM330 780h-100l-173 164l172 0z" />
<glyph unicode="&#201;" horiz-adv-x="472" d="M436 722v-110h-249v-168h227v-110h-227v-224h249v-110h-386v722zM255 944h172l-173 -164l-100 0z" />
<glyph unicode="&#202;" horiz-adv-x="472" d="M436 722v-110h-249v-168h227v-110h-227v-224h249v-110h-386v722zM423 780h-100l-79 97l-79 -97h-100l111 164l136 0z" />
<glyph unicode="&#203;" horiz-adv-x="472" d="M436 722v-110h-249v-168h227v-110h-227v-224h249v-110h-386v722zM97 893h109v-109h-109zM281 893h109v-109l-109 0z" />
<glyph unicode="&#204;" horiz-adv-x="237" d="M187 0h-137v722h137zM223 780h-100l-173 164l172 0z" />
<glyph unicode="&#205;" horiz-adv-x="237" d="M187 0h-137v722h137zM113 944h172l-173 -164l-100 0z" />
<glyph unicode="&#206;" horiz-adv-x="237" d="M187 0h-137v722h137zM297 780h-100l-79 97l-79 -97h-100l111 164l136 0z" />
<glyph unicode="&#207;" horiz-adv-x="237" d="M187 0h-137v722h137zM-26 893h109v-109h-109zM158 893h109v-109l-109 0z" />
<glyph unicode="&#208;" horiz-adv-x="560" d="M50 722h242q45 0 86 -14q41 -14 71.5 -50q30.5 -36 48.5 -99.5q18 -63.5 18 -162.5v-36q0 -61 -8 -124.5q-8 -63.5 -31 -116q-23 -52.5 -65.5 -86q-42.5 -33.5 -111.5 -33.5h-250v334h-57v110h57zM187 444h103v-110h-103v-227h86q33 0 53.5 20q20.5 20 31.5 54.5q11 34.5 14.5 81q3.5 46.5 3.5 99.5q0 133 -21.5 193q-21.5 60 -77.5 60l-90 0z" />
<glyph unicode="&#209;" horiz-adv-x="560" d="M198 722l200 -525h1q-6 30 -9 64.5q-3 34.5 -5 69.5q-2 35 -2.5 69.5q-0.5 34.5 -0.5 65.5v256h128v-722h-148l-200 524h-1q6 -26 9 -61q3 -35 5 -72q2 -37 2.5 -72.5q0.5 -35.5 0.5 -62.5v-256h-128v722zM128 777q23 136 104 136q16 0 33 -4.5q17 -4.5 33.5 -9.5q16.5 -5 32 -9.5q15.5 -4.5 29.5 -4.5q36 0 45 45l51 0q-10 -69 -39 -104q-29 -35 -70 -35q-10 0 -27 4.5q-17 4.5 -35 9.5q-18 5 -34 9.5q-16 4.5 -24 4.5q-39 0 -48 -42z" />
<glyph unicode="&#210;" horiz-adv-x="557" d="M45 488q0 68 17.5 115q17.5 47 48.5 76.5q31 29.5 74.5 42.5q43.5 13 94.5 13q52 0 95 -12.5q43 -12.5 73.5 -42q30.5 -29.5 47 -76.5q16.5 -47 16.5 -116v-262q0 -69 -16.5 -115.5q-16.5 -46.5 -47 -75q-30.5 -28.5 -73.5 -40.5q-43 -12 -95 -12q-51 0 -94.5 12.5q-43.5 12.5 -74.5 41q-31 28.5 -48.5 75q-17.5 46.5 -17.5 114.5zM280 625q-49 0 -72 -31.5q-23 -31.5 -23 -89.5v-295q0 -57 23 -86.5q23 -29.5 72 -29.5q45 0 68.5 29.5q23.5 29.5 23.5 86.5v293q0 58 -23.5 90.5q-23.5 32.5 -68.5 32.5zt0 0zM345 780h-100l-173 164l172 0z" />
<glyph unicode="&#211;" horiz-adv-x="557" d="M45 488q0 68 17.5 115q17.5 47 48.5 76.5q31 29.5 74.5 42.5q43.5 13 94.5 13q52 0 95 -12.5q43 -12.5 73.5 -42q30.5 -29.5 47 -76.5q16.5 -47 16.5 -116v-262q0 -69 -16.5 -115.5q-16.5 -46.5 -47 -75q-30.5 -28.5 -73.5 -40.5q-43 -12 -95 -12q-51 0 -94.5 12.5q-43.5 12.5 -74.5 41q-31 28.5 -48.5 75q-17.5 46.5 -17.5 114.5zM280 625q-49 0 -72 -31.5q-23 -31.5 -23 -89.5v-295q0 -57 23 -86.5q23 -29.5 72 -29.5q45 0 68.5 29.5q23.5 29.5 23.5 86.5v293q0 58 -23.5 90.5q-23.5 32.5 -68.5 32.5zt0 0zM299 944h172l-173 -164l-100 0z" />
<glyph unicode="&#212;" horiz-adv-x="557" d="M45 488q0 68 17.5 115q17.5 47 48.5 76.5q31 29.5 74.5 42.5q43.5 13 94.5 13q52 0 95 -12.5q43 -12.5 73.5 -42q30.5 -29.5 47 -76.5q16.5 -47 16.5 -116v-262q0 -69 -16.5 -115.5q-16.5 -46.5 -47 -75q-30.5 -28.5 -73.5 -40.5q-43 -12 -95 -12q-51 0 -94.5 12.5q-43.5 12.5 -74.5 41q-31 28.5 -48.5 75q-17.5 46.5 -17.5 114.5zM280 625q-49 0 -72 -31.5q-23 -31.5 -23 -89.5v-295q0 -57 23 -86.5q23 -29.5 72 -29.5q45 0 68.5 29.5q23.5 29.5 23.5 86.5v293q0 58 -23.5 90.5q-23.5 32.5 -68.5 32.5zt0 0zM458 780h-100l-79 97l-79 -97h-100l111 164l136 0z" />
<glyph unicode="&#213;" horiz-adv-x="557" d="M45 488q0 68 17.5 115q17.5 47 48.5 76.5q31 29.5 74.5 42.5q43.5 13 94.5 13q52 0 95 -12.5q43 -12.5 73.5 -42q30.5 -29.5 47 -76.5q16.5 -47 16.5 -116v-262q0 -69 -16.5 -115.5q-16.5 -46.5 -47 -75q-30.5 -28.5 -73.5 -40.5q-43 -12 -95 -12q-51 0 -94.5 12.5q-43.5 12.5 -74.5 41q-31 28.5 -48.5 75q-17.5 46.5 -17.5 114.5zM280 625q-49 0 -72 -31.5q-23 -31.5 -23 -89.5v-295q0 -57 23 -86.5q23 -29.5 72 -29.5q45 0 68.5 29.5q23.5 29.5 23.5 86.5v293q0 58 -23.5 90.5q-23.5 32.5 -68.5 32.5zt0 0zM116 777q23 136 104 136q16 0 33 -4.5q17 -4.5 33.5 -9.5q16.5 -5 32 -9.5q15.5 -4.5 29.5 -4.5q36 0 45 45l51 0q-10 -69 -39 -104q-29 -35 -70 -35q-10 0 -27 4.5q-17 4.5 -35 9.5q-18 5 -34 9.5q-16 4.5 -24 4.5q-39 0 -48 -42z" />
<glyph unicode="&#214;" horiz-adv-x="557" d="M45 488q0 68 17.5 115q17.5 47 48.5 76.5q31 29.5 74.5 42.5q43.5 13 94.5 13q52 0 95 -12.5q43 -12.5 73.5 -42q30.5 -29.5 47 -76.5q16.5 -47 16.5 -116v-262q0 -69 -16.5 -115.5q-16.5 -46.5 -47 -75q-30.5 -28.5 -73.5 -40.5q-43 -12 -95 -12q-51 0 -94.5 12.5q-43.5 12.5 -74.5 41q-31 28.5 -48.5 75q-17.5 46.5 -17.5 114.5zM280 625q-49 0 -72 -31.5q-23 -31.5 -23 -89.5v-295q0 -57 23 -86.5q23 -29.5 72 -29.5q45 0 68.5 29.5q23.5 29.5 23.5 86.5v293q0 58 -23.5 90.5q-23.5 32.5 -68.5 32.5zt0 0zM134 893h109v-109h-109zM318 893h109v-109l-109 0z" />
<glyph unicode="&#215;" horiz-adv-x="480" d="M25 386l75 75l138 -138l143 143l75 -75l-143 -143l143 -143l-75 -75l-143 143l-138 -138l-75 75l138 138z" />
<glyph unicode="&#216;" horiz-adv-x="557" d="M543 713l-56 -90q12 -26 18.5 -59.5q6.5 -33.5 6.5 -75.5v-262q0 -69 -16.5 -115.5q-16.5 -46.5 -47 -75q-30.5 -28.5 -73.5 -40.5q-43 -12 -95 -12q-48 0 -89 11q-41 11 -72 36l-48 -78l-52 34l58 94q-15 27 -23.5 63q-8.5 36 -8.5 83v262q0 68 17.5 115q17.5 47 48.5 76.5q31 29.5 74.5 42.5q43.5 13 94.5 13q53 0 95.5 -13q42.5 -13 73.5 -42l42 67zM367 548q-8 37 -30 57q-22 20 -57 20q-49 0 -72 -31.5q-23 -31.5 -23 -89.5v-250zM194 150q20 -57 86 -57q45 0 68.5 29.5q23.5 29.5 23.5 86.5l0 228z" />
<glyph unicode="&#217;" horiz-adv-x="557" d="M187 722v-508q0 -60 21.5 -88.5q21.5 -28.5 70.5 -28.5q51 0 71 28q20 28 20 89v508h137v-528q0 -98 -54 -152.5q-54 -54.5 -174 -54.5q-120 0 -174.5 53.5q-54.5 53.5 -54.5 153.5v528zM342 780h-100l-173 164l172 0z" />
<glyph unicode="&#218;" horiz-adv-x="557" d="M187 722v-508q0 -60 21.5 -88.5q21.5 -28.5 70.5 -28.5q51 0 71 28q20 28 20 89v508h137v-528q0 -98 -54 -152.5q-54 -54.5 -174 -54.5q-120 0 -174.5 53.5q-54.5 53.5 -54.5 153.5v528zM309 944h172l-173 -164l-100 0z" />
<glyph unicode="&#219;" horiz-adv-x="557" d="M187 722v-508q0 -60 21.5 -88.5q21.5 -28.5 70.5 -28.5q51 0 71 28q20 28 20 89v508h137v-528q0 -98 -54 -152.5q-54 -54.5 -174 -54.5q-120 0 -174.5 53.5q-54.5 53.5 -54.5 153.5v528zM458 780h-100l-79 97l-79 -97h-100l111 164l136 0z" />
<glyph unicode="&#220;" horiz-adv-x="557" d="M187 722v-508q0 -60 21.5 -88.5q21.5 -28.5 70.5 -28.5q51 0 71 28q20 28 20 89v508h137v-528q0 -98 -54 -152.5q-54 -54.5 -174 -54.5q-120 0 -174.5 53.5q-54.5 53.5 -54.5 153.5v528zM134 893h109v-109h-109zM318 893h109v-109l-109 0z" />
<glyph unicode="&#221;" horiz-adv-x="543" d="M173 722l96 -278l109 278h155l-195 -412v-310h-137v310l-190 412zM309 944h172l-173 -164l-100 0z" />
<glyph unicode="&#222;" horiz-adv-x="544" d="M187 0h-137v722h137v-115h122q44 0 79 -16.5q35 -16.5 60 -45.5q25 -29 38 -67.5q13 -38.5 13 -81.5q0 -45 -13.5 -84.5q-13.5 -39.5 -38.5 -69q-25 -29.5 -60.5 -46.5q-35.5 -17 -79.5 -17h-120zM187 286h69q52 0 77.5 28q25.5 28 25.5 80q0 51 -25.5 78.5q-25.5 27.5 -77.5 27.5l-69 0z" />
<glyph unicode="&#223;" horiz-adv-x="508" d="M47 514q0 36 6 75.5q6 39.5 27 71.5q21 32 61 53q40 21 109 21q58 0 94.5 -16.5q36.5 -16.5 57 -42.5q20.5 -26 28 -58q7.5 -32 7.5 -62q0 -6 -2 -23.5q-2 -17.5 -10 -37q-8 -19.5 -23.5 -38q-15.5 -18.5 -43.5 -27.5l0 -6q25 -5 49 -18q24 -13 42.5 -37.5q18.5 -24.5 29.5 -61q11 -36.5 11 -87.5q0 -14 -1 -36.5q-1 -22.5 -7 -47.5q-6 -25 -18 -50.5q-12 -25.5 -33.5 -46q-21.5 -20.5 -54.5 -33.5q-33 -13 -80 -13q-21 0 -40.5 2.5q-19.5 2.5 -36.5 5.5l0 108q22 -11 45 -11q14 0 28.5 4q14.5 4 26.5 17.5q12 13.5 19.5 38.5q7.5 25 7.5 67q0 64 -21.5 92.5q-21.5 28.5 -82.5 28.5h-23v105h21q38 0 52 22.5q14 22.5 14 70.5q0 35 -13 59q-13 24 -42 24q-42 0 -53 -34.5q-11 -34.5 -11 -112.5v-480l-140 0z" />
<glyph unicode="&#224;" horiz-adv-x="477" d="M217 230q-23 -15 -32.5 -37q-9.5 -22 -9.5 -41q0 -31 12.5 -53q12.5 -22 41.5 -22q29 0 49 17.5q20 17.5 20 54.5v133zM55 378v27q0 33 13.5 61q13.5 28 38 49q24.5 21 58 33q33.5 12 73.5 12q40 0 74.5 -8q34.5 -8 60 -25q25.5 -17 40 -43.5q14.5 -26.5 14.5 -63.5v-340q0 -28 2.5 -47q2.5 -19 13.5 -33l-129 0q-6 9 -8 25q-2 16 -2 27q-18 -32 -44 -50q-26 -18 -75 -18q-61 0 -100.5 37q-39.5 37 -39.5 114q0 71 34 111q34 40 105 70q22 9 43 18.5q21 9.5 36.5 21q15.5 11.5 25 25q9.5 13.5 9.5 30.5q0 48 -59 48q-26 0 -45 -16.5q-19 -16.5 -19 -53.5v-11zM295 589h-98l-144 136l158 0z" />
<glyph unicode="&#225;" horiz-adv-x="477" d="M217 230q-23 -15 -32.5 -37q-9.5 -22 -9.5 -41q0 -31 12.5 -53q12.5 -22 41.5 -22q29 0 49 17.5q20 17.5 20 54.5v133zM55 378v27q0 33 13.5 61q13.5 28 38 49q24.5 21 58 33q33.5 12 73.5 12q40 0 74.5 -8q34.5 -8 60 -25q25.5 -17 40 -43.5q14.5 -26.5 14.5 -63.5v-340q0 -28 2.5 -47q2.5 -19 13.5 -33l-129 0q-6 9 -8 25q-2 16 -2 27q-18 -32 -44 -50q-26 -18 -75 -18q-61 0 -100.5 37q-39.5 37 -39.5 114q0 71 34 111q34 40 105 70q22 9 43 18.5q21 9.5 36.5 21q15.5 11.5 25 25q9.5 13.5 9.5 30.5q0 48 -59 48q-26 0 -45 -16.5q-19 -16.5 -19 -53.5v-11zM386 726l-144 -136h-98l84 136z" />
<glyph unicode="&#226;" horiz-adv-x="477" d="M217 230q-23 -15 -32.5 -37q-9.5 -22 -9.5 -41q0 -31 12.5 -53q12.5 -22 41.5 -22q29 0 49 17.5q20 17.5 20 54.5v133zM55 378v27q0 33 13.5 61q13.5 28 38 49q24.5 21 58 33q33.5 12 73.5 12q40 0 74.5 -8q34.5 -8 60 -25q25.5 -17 40 -43.5q14.5 -26.5 14.5 -63.5v-340q0 -28 2.5 -47q2.5 -19 13.5 -33l-129 0q-6 9 -8 25q-2 16 -2 27q-18 -32 -44 -50q-26 -18 -75 -18q-61 0 -100.5 37q-39.5 37 -39.5 114q0 71 34 111q34 40 105 70q22 9 43 18.5q21 9.5 36.5 21q15.5 11.5 25 25q9.5 13.5 9.5 30.5q0 48 -59 48q-26 0 -45 -16.5q-19 -16.5 -19 -53.5v-11zM300 731l102 -136h-98l-65 72l-65 -72h-98l102 136z" />
<glyph unicode="&#227;" horiz-adv-x="477" d="M217 230q-23 -15 -32.5 -37q-9.5 -22 -9.5 -41q0 -31 12.5 -53q12.5 -22 41.5 -22q29 0 49 17.5q20 17.5 20 54.5v133zM55 378v27q0 33 13.5 61q13.5 28 38 49q24.5 21 58 33q33.5 12 73.5 12q40 0 74.5 -8q34.5 -8 60 -25q25.5 -17 40 -43.5q14.5 -26.5 14.5 -63.5v-340q0 -28 2.5 -47q2.5 -19 13.5 -33l-129 0q-6 9 -8 25q-2 16 -2 27q-18 -32 -44 -50q-26 -18 -75 -18q-61 0 -100.5 37q-39.5 37 -39.5 114q0 71 34 111q34 40 105 70q22 9 43 18.5q21 9.5 36.5 21q15.5 11.5 25 25q9.5 13.5 9.5 30.5q0 48 -59 48q-26 0 -45 -16.5q-19 -16.5 -19 -53.5v-11zM108 602q20 113 87 113q13 0 27.5 -4q14.5 -4 28.5 -8.5q14 -4.5 27 -8q13 -3.5 24 -3.5q29 0 37 38l43 0q-8 -57 -32.5 -86.5q-24.5 -29.5 -58.5 -29.5q-9 0 -23 3.5q-14 3.5 -29 8q-15 4.5 -28.5 8.5q-13.5 4 -19.5 4q-32 0 -40 -35z" />
<glyph unicode="&#228;" horiz-adv-x="477" d="M217 230q-23 -15 -32.5 -37q-9.5 -22 -9.5 -41q0 -31 12.5 -53q12.5 -22 41.5 -22q29 0 49 17.5q20 17.5 20 54.5v133zM55 378v27q0 33 13.5 61q13.5 28 38 49q24.5 21 58 33q33.5 12 73.5 12q40 0 74.5 -8q34.5 -8 60 -25q25.5 -17 40 -43.5q14.5 -26.5 14.5 -63.5v-340q0 -28 2.5 -47q2.5 -19 13.5 -33l-129 0q-6 9 -8 25q-2 16 -2 27q-18 -32 -44 -50q-26 -18 -75 -18q-61 0 -100.5 37q-39.5 37 -39.5 114q0 71 34 111q34 40 105 70q22 9 43 18.5q21 9.5 36.5 21q15.5 11.5 25 25q9.5 13.5 9.5 30.5q0 48 -59 48q-26 0 -45 -16.5q-19 -16.5 -19 -53.5v-11zM92 722h109v-109h-109zM269 722h109v-109l-109 0z" />
<glyph unicode="&#229;" horiz-adv-x="477" d="M217 230q-23 -15 -32.5 -37q-9.5 -22 -9.5 -41q0 -31 12.5 -53q12.5 -22 41.5 -22q29 0 49 17.5q20 17.5 20 54.5v133zM55 378v27q0 33 13.5 61q13.5 28 38 49q24.5 21 58 33q33.5 12 73.5 12q40 0 74.5 -8q34.5 -8 60 -25q25.5 -17 40 -43.5q14.5 -26.5 14.5 -63.5v-340q0 -28 2.5 -47q2.5 -19 13.5 -33l-129 0q-6 9 -8 25q-2 16 -2 27q-18 -32 -44 -50q-26 -18 -75 -18q-61 0 -100.5 37q-39.5 37 -39.5 114q0 71 34 111q34 40 105 70q22 9 43 18.5q21 9.5 36.5 21q15.5 11.5 25 25q9.5 13.5 9.5 30.5q0 48 -59 48q-26 0 -45 -16.5q-19 -16.5 -19 -53.5v-11zM150 683q0 39 27 66q27 27 67 27q39 0 65.5 -27q26.5 -27 26.5 -66q0 -40 -26.5 -67.5q-26.5 -27.5 -65.5 -27.5q-40 0 -67 27.5q-27 27.5 -27 67.5zt0 0zM202 683q0 -22 11.5 -32.5q11.5 -10.5 30.5 -10.5q18 0 29 10.5q11 10.5 11 32.5q0 18 -11.5 29.5q-11.5 11.5 -28.5 11.5q-19 0 -30.5 -11t-11.5 -30z" />
<glyph unicode="&#230;" horiz-adv-x="719" d="M55 378v27q0 33 13.5 61q13.5 28 38 49q24.5 21 58 33q33.5 12 73.5 12q38 0 70 -7q32 -7 58 -22q24 15 54.5 22q30.5 7 65.5 7q41 0 75.5 -9.5q34.5 -9.5 59.5 -30.5q25 -21 39 -54q14 -33 14 -79v-127h-253v-119q0 -30 17.5 -45q17.5 -15 47.5 -15q30 0 47.5 15.5q17.5 15.5 17.5 44.5v31h123v-15q0 -46 -14 -79q-14 -33 -39 -54q-25 -21 -59.5 -30.5q-34.5 -9.5 -75.5 -9.5q-57 0 -100.5 19q-43.5 19 -66.5 61q-23 -45 -56.5 -62.5q-33.5 -17.5 -77.5 -17.5q-61 0 -100.5 37q-39.5 37 -39.5 114q0 71 34 111q34 40 105 70q22 9 43 18.5q21 9.5 36.5 21q15.5 11.5 25 25q9.5 13.5 9.5 30.5q0 52 -59 52q-26 0 -45 -20q-19 -20 -19 -65zM551 350v53q0 29 -17.5 44.5q-17.5 15.5 -47.5 15.5q-30 0 -47.5 -15q-17.5 -15 -17.5 -45v-53zM217 230q-23 -15 -32.5 -37q-9.5 -22 -9.5 -41q0 -31 13 -51q13 -20 42 -20q29 0 48.5 15.5q19.5 15.5 19.5 52.5l0 133z" />
<glyph unicode="&#231;" horiz-adv-x="437" d="M273 348v62q0 25 -14 37q-14 12 -34 12q-23 0 -37.5 -13.5q-14.5 -13.5 -14.5 -42.5v-262q0 -29 14.5 -42.5q14.5 -13.5 37.5 -13.5q20 0 34 12q14 12 14 37v77h123v-83q0 -33 -12.5 -58q-12.5 -25 -33.5 -42.5q-21 -17.5 -47.5 -28q-26.5 -10.5 -53.5 -13.5l0 -23q43 -2 65 -24q22 -22 22 -59q0 -43 -28.5 -67q-28.5 -24 -82.5 -24q-19 0 -39.5 2q-20.5 2 -37.5 6l0 60q17 -5 36 -6.5q19 -1.5 33 -1.5q37 0 37 32q0 26 -46 26h-9v79q-70 7 -112 48q-42 41 -42 104v268q0 34 13 62.5q13 28.5 37 49q24 20.5 57 31.5q33 11 73 11q30 0 60.5 -9q30.5 -9 55 -27q24.5 -18 40 -45q15.5 -27 15.5 -63l0 -68z" />
<glyph unicode="&#232;" horiz-adv-x="466" d="M168 260v-119q0 -30 17.5 -45q17.5 -15 47.5 -15q30 0 47.5 15.5q17.5 15.5 17.5 44.5v31h123v-15q0 -46 -14 -79q-14 -33 -39 -54q-25 -21 -59.5 -30.5q-34.5 -9.5 -75.5 -9.5q-41 0 -75.5 9.5q-34.5 9.5 -59.5 30.5q-25 21 -39 53.5q-14 32.5 -14 79.5v230q0 46 14 79q14 33 39 54q25 21 59.5 30.5q34.5 9.5 75.5 9.5q41 0 75.5 -9.5q34.5 -9.5 59.5 -30.5q25 -21 39 -54q14 -33 14 -79v-127zM298 350v53q0 29 -17.5 44.5q-17.5 15.5 -47.5 15.5q-30 0 -47.5 -15q-17.5 -15 -17.5 -45v-53zM298 588h-98l-144 136l158 0z" />
<glyph unicode="&#233;" horiz-adv-x="466" d="M168 260v-119q0 -30 17.5 -45q17.5 -15 47.5 -15q30 0 47.5 15.5q17.5 15.5 17.5 44.5v31h123v-15q0 -46 -14 -79q-14 -33 -39 -54q-25 -21 -59.5 -30.5q-34.5 -9.5 -75.5 -9.5q-41 0 -75.5 9.5q-34.5 9.5 -59.5 30.5q-25 21 -39 53.5q-14 32.5 -14 79.5v230q0 46 14 79q14 33 39 54q25 21 59.5 30.5q34.5 9.5 75.5 9.5q41 0 75.5 -9.5q34.5 -9.5 59.5 -30.5q25 -21 39 -54q14 -33 14 -79v-127zM298 350v53q0 29 -17.5 44.5q-17.5 15.5 -47.5 15.5q-30 0 -47.5 -15q-17.5 -15 -17.5 -45v-53zM381 724l-144 -136h-98l84 136z" />
<glyph unicode="&#234;" horiz-adv-x="466" d="M168 260v-119q0 -30 17.5 -45q17.5 -15 47.5 -15q30 0 47.5 15.5q17.5 15.5 17.5 44.5v31h123v-15q0 -46 -14 -79q-14 -33 -39 -54q-25 -21 -59.5 -30.5q-34.5 -9.5 -75.5 -9.5q-41 0 -75.5 9.5q-34.5 9.5 -59.5 30.5q-25 21 -39 53.5q-14 32.5 -14 79.5v230q0 46 14 79q14 33 39 54q25 21 59.5 30.5q34.5 9.5 75.5 9.5q41 0 75.5 -9.5q34.5 -9.5 59.5 -30.5q25 -21 39 -54q14 -33 14 -79v-127zM298 350v53q0 29 -17.5 44.5q-17.5 15.5 -47.5 15.5q-30 0 -47.5 -15q-17.5 -15 -17.5 -45v-53zM294 731l102 -136h-98l-65 72l-65 -72h-98l102 136z" />
<glyph unicode="&#235;" horiz-adv-x="466" d="M168 260v-119q0 -30 17.5 -45q17.5 -15 47.5 -15q30 0 47.5 15.5q17.5 15.5 17.5 44.5v31h123v-15q0 -46 -14 -79q-14 -33 -39 -54q-25 -21 -59.5 -30.5q-34.5 -9.5 -75.5 -9.5q-41 0 -75.5 9.5q-34.5 9.5 -59.5 30.5q-25 21 -39 53.5q-14 32.5 -14 79.5v230q0 46 14 79q14 33 39 54q25 21 59.5 30.5q34.5 9.5 75.5 9.5q41 0 75.5 -9.5q34.5 -9.5 59.5 -30.5q25 -21 39 -54q14 -33 14 -79v-127zM298 350v53q0 29 -17.5 44.5q-17.5 15.5 -47.5 15.5q-30 0 -47.5 -15q-17.5 -15 -17.5 -45v-53zM92 722h109v-109h-109zM269 722h109v-109l-109 0z" />
<glyph unicode="&#236;" horiz-adv-x="223" d="M173 0h-123v546h123zM191 586h-98l-144 136l158 0z" />
<glyph unicode="&#237;" horiz-adv-x="223" d="M173 0h-123v546h123zM277 722l-144 -136h-98l84 136z" />
<glyph unicode="&#238;" horiz-adv-x="223" d="M173 0h-123v546h123zM173 731l102 -136h-98l-65 72l-65 -72h-98l102 136z" />
<glyph unicode="&#239;" horiz-adv-x="223" d="M173 0h-123v546h123zM-29 722h109v-109h-109zM148 722h109v-109l-109 0z" />
<glyph unicode="&#241;" horiz-adv-x="464" d="M173 501q14 20 40.5 39.5q26.5 19.5 64.5 19.5q28 0 53 -8.5q25 -8.5 43.5 -27q18.5 -18.5 29 -48q10.5 -29.5 10.5 -70.5v-406h-123v392q0 32 -16 49.5q-16 17.5 -45 17.5q-26 0 -41.5 -17.5q-15.5 -17.5 -15.5 -49.5v-392h-123v546h123zM94 602q20 113 87 113q13 0 27.5 -4q14.5 -4 28.5 -8.5q14 -4.5 27 -8q13 -3.5 24 -3.5q29 0 37 38l43 0q-8 -57 -32.5 -86.5q-24.5 -29.5 -58.5 -29.5q-9 0 -23 3.5q-14 3.5 -29 8q-15 4.5 -28.5 8.5q-13.5 4 -19.5 4q-32 0 -40 -35z" />
<glyph unicode="&#242;" horiz-adv-x="477" d="M239 560q54 0 90.5 -14.5q36.5 -14.5 59.5 -39q23 -24.5 33 -56.5q10 -32 10 -68v-220q0 -36 -10 -68q-10 -32 -33 -56.5q-23 -24.5 -59.5 -39q-36.5 -14.5 -90.5 -14.5q-55 0 -92 14.5q-37 14.5 -59.5 39q-22.5 24.5 -32.5 56.5q-10 32 -10 68v220q0 36 10 68q10 32 32.5 56.5q22.5 24.5 59.5 39q37 14.5 92 14.5zt0 0zM239 463q-29 0 -47.5 -13.5q-18.5 -13.5 -18.5 -51.5v-252q0 -37 19 -51q19 -14 48 -14q30 0 47 13.5q17 13.5 17 51.5v252q0 38 -17.5 51.5q-17.5 13.5 -47.5 13.5zt0 0zM302 586h-98l-144 136l158 0z" />
<glyph unicode="&#243;" horiz-adv-x="477" d="M239 560q54 0 90.5 -14.5q36.5 -14.5 59.5 -39q23 -24.5 33 -56.5q10 -32 10 -68v-220q0 -36 -10 -68q-10 -32 -33 -56.5q-23 -24.5 -59.5 -39q-36.5 -14.5 -90.5 -14.5q-55 0 -92 14.5q-37 14.5 -59.5 39q-22.5 24.5 -32.5 56.5q-10 32 -10 68v220q0 36 10 68q10 32 32.5 56.5q22.5 24.5 59.5 39q37 14.5 92 14.5zt0 0zM239 463q-29 0 -47.5 -13.5q-18.5 -13.5 -18.5 -51.5v-252q0 -37 19 -51q19 -14 48 -14q30 0 47 13.5q17 13.5 17 51.5v252q0 38 -17.5 51.5q-17.5 13.5 -47.5 13.5zt0 0zM387 724l-144 -136h-98l84 136z" />
<glyph unicode="&#244;" horiz-adv-x="477" d="M239 560q54 0 90.5 -14.5q36.5 -14.5 59.5 -39q23 -24.5 33 -56.5q10 -32 10 -68v-220q0 -36 -10 -68q-10 -32 -33 -56.5q-23 -24.5 -59.5 -39q-36.5 -14.5 -90.5 -14.5q-55 0 -92 14.5q-37 14.5 -59.5 39q-22.5 24.5 -32.5 56.5q-10 32 -10 68v220q0 36 10 68q10 32 32.5 56.5q22.5 24.5 59.5 39q37 14.5 92 14.5zt0 0zM239 463q-29 0 -47.5 -13.5q-18.5 -13.5 -18.5 -51.5v-252q0 -37 19 -51q19 -14 48 -14q30 0 47 13.5q17 13.5 17 51.5v252q0 38 -17.5 51.5q-17.5 13.5 -47.5 13.5zt0 0zM300 731l102 -136h-98l-65 72l-65 -72h-98l102 136z" />
<glyph unicode="&#245;" horiz-adv-x="477" d="M239 560q54 0 90.5 -14.5q36.5 -14.5 59.5 -39q23 -24.5 33 -56.5q10 -32 10 -68v-220q0 -36 -10 -68q-10 -32 -33 -56.5q-23 -24.5 -59.5 -39q-36.5 -14.5 -90.5 -14.5q-55 0 -92 14.5q-37 14.5 -59.5 39q-22.5 24.5 -32.5 56.5q-10 32 -10 68v220q0 36 10 68q10 32 32.5 56.5q22.5 24.5 59.5 39q37 14.5 92 14.5zt0 0zM239 463q-29 0 -47.5 -13.5q-18.5 -13.5 -18.5 -51.5v-252q0 -37 19 -51q19 -14 48 -14q30 0 47 13.5q17 13.5 17 51.5v252q0 38 -17.5 51.5q-17.5 13.5 -47.5 13.5zt0 0zM103 602q20 113 87 113q13 0 27.5 -4q14.5 -4 28.5 -8.5q14 -4.5 27 -8q13 -3.5 24 -3.5q29 0 37 38l43 0q-8 -57 -32.5 -86.5q-24.5 -29.5 -58.5 -29.5q-9 0 -23 3.5q-14 3.5 -29 8q-15 4.5 -28.5 8.5q-13.5 4 -19.5 4q-32 0 -40 -35z" />
<glyph unicode="&#246;" horiz-adv-x="477" d="M239 560q54 0 90.5 -14.5q36.5 -14.5 59.5 -39q23 -24.5 33 -56.5q10 -32 10 -68v-220q0 -36 -10 -68q-10 -32 -33 -56.5q-23 -24.5 -59.5 -39q-36.5 -14.5 -90.5 -14.5q-55 0 -92 14.5q-37 14.5 -59.5 39q-22.5 24.5 -32.5 56.5q-10 32 -10 68v220q0 36 10 68q10 32 32.5 56.5q22.5 24.5 59.5 39q37 14.5 92 14.5zt0 0zM239 463q-29 0 -47.5 -13.5q-18.5 -13.5 -18.5 -51.5v-252q0 -37 19 -51q19 -14 48 -14q30 0 47 13.5q17 13.5 17 51.5v252q0 38 -17.5 51.5q-17.5 13.5 -47.5 13.5zt0 0zM94 722h109v-109h-109zM271 722h109v-109l-109 0z" />
<glyph unicode="&#247;" horiz-adv-x="487" d="M452 300v-88h-424v88zM189 512h109v-109h-109zM189 109h109v-109l-109 0z" />
<glyph unicode="&#248;" horiz-adv-x="477" d="M457 570l-53 -81q15 -23 21.5 -50.5q6.5 -27.5 6.5 -56.5v-220q0 -36 -10 -68q-10 -32 -33 -56.5q-23 -24.5 -59.5 -39q-36.5 -14.5 -90.5 -14.5q-48 0 -82 11q-34 11 -57 30l-55 -83l-39 33l61 92q-11 21 -16.5 45q-5.5 24 -5.5 50v220q0 36 10 68q10 32 32.5 56.5q22.5 24.5 59.5 39q37 14.5 92 14.5q43 0 74.5 -9q31.5 -9 54.5 -26l50 75zM301 423q-5 23 -21.5 31.5q-16.5 8.5 -40.5 8.5q-29 0 -47.5 -13.5q-18.5 -13.5 -18.5 -51.5v-170zM173 137q2 -32 21 -44q19 -12 46 -12q30 0 47 13.5q17 13.5 17 51.5l0 191z" />
<glyph unicode="&#249;" horiz-adv-x="468" d="M175 546v-394q0 -67 59 -67q30 0 44.5 17q14.5 17 14.5 49v395h123v-546h-117v56q-19 -35 -45 -53.5q-26 -18.5 -66 -18.5q-28 0 -53 9q-25 9 -43.5 28q-18.5 19 -29 48.5q-10.5 29.5 -10.5 70.5v406zM297 586h-98l-144 136l158 0z" />
<glyph unicode="&#250;" horiz-adv-x="468" d="M175 546v-394q0 -67 59 -67q30 0 44.5 17q14.5 17 14.5 49v395h123v-546h-117v56q-19 -35 -45 -53.5q-26 -18.5 -66 -18.5q-28 0 -53 9q-25 9 -43.5 28q-18.5 19 -29 48.5q-10.5 29.5 -10.5 70.5v406zM391 722l-144 -136h-98l84 136z" />
<glyph unicode="&#251;" horiz-adv-x="468" d="M175 546v-394q0 -67 59 -67q30 0 44.5 17q14.5 17 14.5 49v395h123v-546h-117v56q-19 -35 -45 -53.5q-26 -18.5 -66 -18.5q-28 0 -53 9q-25 9 -43.5 28q-18.5 19 -29 48.5q-10.5 29.5 -10.5 70.5v406zM296 731l102 -136h-98l-65 72l-65 -72h-98l102 136z" />
<glyph unicode="&#252;" horiz-adv-x="468" d="M175 546v-394q0 -67 59 -67q30 0 44.5 17q14.5 17 14.5 49v395h123v-546h-117v56q-19 -35 -45 -53.5q-26 -18.5 -66 -18.5q-28 0 -53 9q-25 9 -43.5 28q-18.5 19 -29 48.5q-10.5 29.5 -10.5 70.5v406zM92 722h109v-109h-109zM269 722h109v-109l-109 0z" />
<glyph unicode="&#253;" horiz-adv-x="434" d="M145 546l73 -419h2l70 419h129l-145 -615q-8 -34 -19 -56q-11 -22 -26.5 -34.5q-15.5 -12.5 -36 -17.5q-20.5 -5 -48.5 -5q-18 0 -33 1q-15 1 -32 3l0 93h45q14 0 20.5 10.5q6.5 10.5 6.5 25.5q0 3 -6.5 30.5q-6.5 27.5 -22.5 94.5q-16 67 -43.5 180.5q-27.5 113.5 -70.5 289.5zM406 731l-144 -136h-98l84 136z" />
<glyph unicode="&#254;" horiz-adv-x="466" d="M234 459q-23 0 -42 -16q-19 -16 -19 -50v-246q0 -34 19 -50q19 -16 42 -16q24 0 41.5 16q17.5 16 17.5 48v250q0 32 -17.5 48q-17.5 16 -41.5 16zt0 0zM173 722v-237q14 38 43.5 56.5q29.5 18.5 61.5 18.5q28 0 54 -8.5q26 -8.5 45.5 -27q19.5 -18.5 31.5 -47.5q12 -29 12 -70v-269q0 -39 -12 -68q-12 -29 -31.5 -48q-19.5 -19 -45.5 -28.5q-26 -9.5 -54 -9.5q-73 0 -105 74l0 -240h-123l0 904z" />
<glyph unicode="&#255;" horiz-adv-x="434" d="M145 546l73 -419h2l70 419h129l-145 -615q-8 -34 -19 -56q-11 -22 -26.5 -34.5q-15.5 -12.5 -36 -17.5q-20.5 -5 -48.5 -5q-18 0 -33 1q-15 1 -32 3l0 93h45q14 0 20.5 10.5q6.5 10.5 6.5 25.5q0 3 -6.5 30.5q-6.5 27.5 -22.5 94.5q-16 67 -43.5 180.5q-27.5 113.5 -70.5 289.5zM76 722h109v-109h-109zM253 722h109v-109l-109 0z" />
<glyph unicode="&#305;" horiz-adv-x="223" d="M173 0h-123v546l123 0z" />
<glyph unicode="&#321;" horiz-adv-x="459" d="M187 363v-253h249v-110h-386v229l-88 -86v120l88 86v373h137v-239l117 115l0 -120z" />
<glyph unicode="&#322;" horiz-adv-x="223" d="M50 397v325h123v-229l110 85v-80l-110 -85v-413h-123v317l-103 -79l0 80z" />
<glyph unicode="&#338;" horiz-adv-x="794" d="M45 488q0 68 17.5 115q17.5 47 48.5 76.5q31 29.5 74.5 42.5q43.5 13 94.5 13q55 0 97 -13l381 0v-110h-249v-168h227v-110h-227v-224h249v-110h-368q-24 -9 -51.5 -13q-27.5 -4 -58.5 -4q-51 0 -94.5 12.5q-43.5 12.5 -74.5 41q-31 28.5 -48.5 75q-17.5 46.5 -17.5 114.5zM280 625q-49 0 -72 -31.5q-23 -31.5 -23 -89.5v-295q0 -57 23 -86.5q23 -29.5 72 -29.5q45 0 68.5 29.5q23.5 29.5 23.5 86.5v293q0 58 -23.5 90.5t-68.5 32.5z" />
<glyph unicode="&#339;" horiz-adv-x="725" d="M239 560q80 0 127 -33q25 17 56.5 25q31.5 8 69.5 8q41 0 75.5 -9.5q34.5 -9.5 59.5 -30.5q25 -21 39 -54q14 -33 14 -79v-127h-253v-119q0 -30 17.5 -45q17.5 -15 47.5 -15q30 0 47.5 15.5q17.5 15.5 17.5 44.5v31h123v-15q0 -46 -14 -79q-14 -33 -39 -54q-25 -21 -59.5 -30.5q-34.5 -9.5 -75.5 -9.5q-38 0 -69.5 8q-31.5 8 -56.5 25q-47 -33 -127 -33q-55 0 -92 14.5q-37 14.5 -59.5 39q-22.5 24.5 -32.5 56.5q-10 32 -10 68v220q0 36 10 68q10 32 32.5 56.5q22.5 24.5 59.5 39q37 14.5 92 14.5zt0 0zM557 350v53q0 29 -17.5 44.5q-17.5 15.5 -47.5 15.5q-30 0 -47.5 -15q-17.5 -15 -17.5 -45v-53zM239 463q-29 0 -47.5 -13.5q-18.5 -13.5 -18.5 -51.5v-252q0 -37 19 -51q19 -14 48 -14q30 0 47 13.5q17 13.5 17 51.5v252q0 38 -17.5 51.5t-47.5 13.5z" />
<glyph unicode="&#352;" horiz-adv-x="523" d="M340 494v8q0 66 -22.5 94.5q-22.5 28.5 -63.5 28.5q-29 0 -51 -15.5q-22 -15.5 -22 -45.5q0 -32 12 -50q12 -18 34 -32l140 -93q28 -19 51 -38q23 -19 39 -42q16 -23 24.5 -53q8.5 -30 8.5 -70q0 -96 -56.5 -149.5q-56.5 -53.5 -165.5 -53.5q-115 0 -173 62.5q-58 62.5 -58 174.5v28h131v-28q0 -38 8.5 -62.5q8.5 -24.5 22 -39q13.5 -14.5 31.5 -20q18 -5.5 38 -5.5q39 0 60 23.5q21 23.5 21 57.5q0 35 -18.5 59q-18.5 24 -56.5 49l-122 80q-108 70 -108 186q0 45 15.5 79.5q15.5 34.5 44 58.5q28.5 24 67.5 36.5q39 12.5 86 12.5q103 0 158.5 -55q55.5 -55 55.5 -164v-22zM183 944l79 -97l79 97h100l-111 -164h-136l-111 164z" />
<glyph unicode="&#353;" horiz-adv-x="445" d="M160 176v-30q0 -35 17.5 -50q17.5 -15 43.5 -15q24 0 42.5 11.5q18.5 11.5 18.5 39.5q0 23 -14 40.5q-14 17.5 -42 35.5l-101 64q-35 23 -58.5 56q-23.5 33 -23.5 86q0 36 14 63.5q14 27.5 38 45.5q24 18 56 27.5q32 9.5 68 9.5q40 0 73 -11.5q33 -11.5 56.5 -33q23.5 -21.5 36.5 -54q13 -32.5 13 -74.5v-11h-120v13q0 36 -16.5 55q-16.5 19 -42.5 19q-53 0 -53 -49q0 -17 9.5 -30q9.5 -13 36.5 -30l86 -54q19 -12 38 -27.5q19 -15.5 34.5 -36q15.5 -20.5 25 -47q9.5 -26.5 9.5 -59.5q0 -51 -19.5 -80q-19.5 -29 -48.5 -43.5q-29 -14.5 -62 -18.5q-33 -4 -59 -4q-35 0 -67 10.5q-32 10.5 -56 31.5q-24 21 -38.5 52q-14.5 31 -14.5 73v25zM165 595l-102 136h98l65 -72l65 72h98l-102 -136z" />
<glyph unicode="&#376;" horiz-adv-x="543" d="M173 722l96 -278l109 278h155l-195 -412v-310h-137v310l-190 412zM122 893h109v-109h-109zM306 893h109v-109l-109 0z" />
<glyph unicode="&#381;" horiz-adv-x="489" d="M440 722v-107l-263 -508h270v-107h-416v103l265 512h-252v107zM168 944l79 -97l79 97h100l-111 -164h-136l-111 164z" />
<glyph unicode="&#382;" horiz-adv-x="388" d="M356 546v-97l-186 -352h194v-97h-332v103l187 346h-187v97zM149 595l-121 136h108l63 -74l63 74h108l-121 -136z" />
<glyph unicode="&#402;" horiz-adv-x="500" d="M8 -69q8 -5 21 -7.5q13 -2.5 26 -2.5q27 0 40 22.5q13 22.5 21 67.5l65 389h-114v97h125q17 133 62.5 196.5q45.5 63.5 132.5 63.5q39 0 80 -18l-20 -101q-9 7 -20 9.5q-11 2.5 -23 2.5q-39 0 -55.5 -36q-16.5 -36 -25.5 -117l110 0v-97h-121l-55 -340q-21 -130 -61.5 -189.5q-40.5 -59.5 -114.5 -59.5q-21 0 -42.5 2.5q-21.5 2.5 -43.5 9.5z" />
<glyph unicode="&#710;" horiz-adv-x="477" d="M300 731l102 -136h-98l-65 72l-65 -72h-98l102 136z" />
<glyph unicode="&#711;" horiz-adv-x="445" d="M176 595l-121 136h108l63 -74l63 74h108l-121 -136z" />
<glyph unicode="&#728;" horiz-adv-x="434" d="M159 722q0 -35 18 -43q18 -8 45 -8q29 0 49 8.5q20 8.5 20 42.5l64 0q0 -60 -31.5 -91.5q-31.5 -31.5 -99.5 -31.5q-34 0 -58.5 10q-24.5 10 -40 27q-15.5 17 -23 39q-7.5 22 -7.5 47z" />
<glyph unicode="&#729;" horiz-adv-x="223" d="M50 722h123v-123l-123 0z" />
<glyph unicode="&#730;" horiz-adv-x="477" d="M152 683q0 39 27 66q27 27 67 27q39 0 65.5 -27q26.5 -27 26.5 -66q0 -40 -26.5 -67.5q-26.5 -27.5 -65.5 -27.5q-40 0 -67 27.5q-27 27.5 -27 67.5zt0 0zM204 683q0 -22 11.5 -32.5q11.5 -10.5 30.5 -10.5q18 0 29 10.5q11 10.5 11 32.5q0 18 -11.5 29.5q-11.5 11.5 -28.5 11.5q-19 0 -30.5 -11t-11.5 -30z" />
<glyph unicode="&#731;" horiz-adv-x="350" d="M222 0q-26 -26 -42 -59q-16 -33 -16 -65q0 -28 11 -49q11 -21 34 -21q23 0 32.5 18q9.5 18 11.5 44l73 0q-1 -24 -8.5 -48q-7.5 -24 -22.5 -44q-15 -20 -37.5 -32.5q-22.5 -12.5 -53.5 -12.5q-27 0 -51 9q-24 9 -41 25q-17 16 -27 39q-10 23 -10 50q0 38 17.5 77.5q17.5 39.5 50.5 68.5z" />
<glyph unicode="&#732;" horiz-adv-x="477" d="M121 602q20 113 87 113q13 0 27.5 -4q14.5 -4 28.5 -8.5q14 -4.5 27 -8q13 -3.5 24 -3.5q29 0 37 38l43 0q-8 -57 -32.5 -86.5q-24.5 -29.5 -58.5 -29.5q-9 0 -23 3.5q-14 3.5 -29 8q-15 4.5 -28.5 8.5q-13.5 4 -19.5 4q-32 0 -40 -35z" />
<glyph unicode="&#733;" horiz-adv-x="443" d="M238 736l-111 -136h-98l69 136zM421 736l-112 -136h-98l69 136z" />
<glyph unicode="&#960;" horiz-adv-x="505" d="M485 447v-71h-113l-10 -148q-3 -39 -3 -67q0 -68 16 -83q16 -15 38 -15q47 0 56 59l17 0q-17 -135 -108 -135q-43 0 -69 26q-26 26 -26 78q0 17 2.5 53q2.5 36 7.5 91l13 141h-103q-5 -90 -11.5 -154q-6.5 -64 -13.5 -106q-13 -81 -32 -106q-17 -23 -47 -23q-22 0 -37.5 13q-15.5 13 -15.5 34q0 21 26 56q38 51 58 108q10 28 17 72.5q7 44.5 12 105.5l-34 0q-40 0 -61 -18q-21 -18 -40 -51l-18 0q15 52 37 86q22 33 46 44q23 10 84 10z" />
<glyph unicode="&#1025;" horiz-adv-x="472" d="M436 722v-110h-249v-168h227v-110h-227v-224h249v-110h-386v722zM101 893h109v-109h-109zM285 893h109v-109l-109 0z" />
<glyph unicode="&#1026;" horiz-adv-x="684" d="M325 434q19 4 53 7q34 3 72 3q42 0 76 -19q34 -19 58 -49.5q24 -30.5 37 -68.5q13 -38 13 -76q0 -52 -11.5 -94.5q-11.5 -42.5 -33.5 -73q-22 -30.5 -54 -47q-32 -16.5 -73 -16.5h-68v103h20q38 0 59 25.5q21 25.5 21 86.5q0 54 -21 86.5q-21 32.5 -59 32.5q-27 0 -52 -2.5q-25 -2.5 -37 -5.5l0 -326h-137v612h-170v110h477v-110l-170 0z" />
<glyph unicode="&#1027;" horiz-adv-x="450" d="M429 722v-110h-242v-612h-137v722zM419 955l-159 -180h-87l110 180z" />
<glyph unicode="&#1028;" horiz-adv-x="531" d="M349 503q0 57 -17.5 89.5q-17.5 32.5 -65.5 32.5q-25 0 -40.5 -8.5q-15.5 -8.5 -24.5 -24.5q-9 -16 -12.5 -38.5q-3.5 -22.5 -3.5 -50.5v-59h115v-110h-115v-126q0 -54 20.5 -84.5q20.5 -30.5 60.5 -30.5q49 0 66 29q17 29 17 82v50h137v-35q0 -126 -54 -181q-54 -55 -166 -55q-107 0 -164 58q-57 58 -57 184v308q0 44 13.5 81q13.5 37 41 64q27.5 27 69 42q41.5 15 97.5 15q54 0 95.5 -15q41.5 -15 69 -41.5q27.5 -26.5 41.5 -63.5q14 -37 14 -82l0 -30z" />
<glyph unicode="&#1029;" horiz-adv-x="523" d="M340 494v8q0 66 -22.5 94.5q-22.5 28.5 -63.5 28.5q-29 0 -51 -15.5q-22 -15.5 -22 -45.5q0 -32 12 -50q12 -18 34 -32l140 -93q28 -19 51 -38q23 -19 39 -42q16 -23 24.5 -53q8.5 -30 8.5 -70q0 -96 -56.5 -149.5q-56.5 -53.5 -165.5 -53.5q-115 0 -173 62.5q-58 62.5 -58 174.5v28h131v-28q0 -38 8.5 -62.5q8.5 -24.5 22 -39q13.5 -14.5 31.5 -20q18 -5.5 38 -5.5q39 0 60 23.5q21 23.5 21 57.5q0 35 -18.5 59q-18.5 24 -56.5 49l-122 80q-108 70 -108 186q0 45 15.5 79.5q15.5 34.5 44 58.5q28.5 24 67.5 36.5q39 12.5 86 12.5q103 0 158.5 -55q55.5 -55 55.5 -164l0 -22z" />
<glyph unicode="&#1030;" horiz-adv-x="237" d="M187 0h-137v722l137 0z" />
<glyph unicode="&#1031;" horiz-adv-x="237" d="M187 0h-137v722h137zM-28 893h109v-109h-109zM156 893h109v-109l-109 0z" />
<glyph unicode="&#1032;" horiz-adv-x="451" d="M401 722v-567q0 -80 -49.5 -126q-49.5 -46 -140.5 -46q-92 0 -137.5 42.5q-45.5 42.5 -45.5 143.5v59h134v-73q0 -37 14.5 -49.5q14.5 -12.5 34.5 -12.5q23 0 38 16q15 16 15 54l0 559z" />
<glyph unicode="&#1033;" horiz-adv-x="879" d="M535 722v-278h115q42 0 76 -19q34 -19 58 -49.5q24 -30.5 37 -68.5q13 -38 13 -76q0 -52 -11.5 -94.5q-11.5 -42.5 -33.5 -73q-22 -30.5 -54 -47q-32 -16.5 -73 -16.5h-264v612h-146v-277q0 -90 -8 -156q-8 -66 -26.5 -108.5q-18.5 -42.5 -48 -63q-29.5 -20.5 -72.5 -20.5q-24 0 -43.5 2q-19.5 2 -39.5 7l0 101q7 -2 19.5 -3.5q12.5 -1.5 24.5 -1.5q16 0 27 7.5q11 7.5 18 36q7 28.5 10.5 85.5q3.5 57 3.5 155v346zM535 103h79q38 0 59 25.5q21 25.5 21 86.5q0 54 -21 86.5q-21 32.5 -59 32.5l-79 0z" />
<glyph unicode="&#1034;" horiz-adv-x="849" d="M187 444h181v278h137v-278h115q42 0 76 -19q34 -19 58 -49.5q24 -30.5 37 -68.5q13 -38 13 -76q0 -52 -11.5 -94.5q-11.5 -42.5 -33.5 -73q-22 -30.5 -54 -47q-32 -16.5 -73 -16.5h-264v334h-181v-334h-137v722h137zM505 103h79q38 0 59 25.5q21 25.5 21 86.5q0 54 -21 86.5q-21 32.5 -59 32.5l-79 0z" />
<glyph unicode="&#1035;" horiz-adv-x="684" d="M325 434q17 5 48 7.5q31 2.5 63 2.5q43 0 79.5 -13q36.5 -13 62.5 -39q26 -26 41 -64.5q15 -38.5 15 -89.5v-238h-137v226q0 108 -103 108q-6 0 -15 -0.5q-9 -0.5 -19 -1.5q-10 -1 -19.5 -2.5q-9.5 -1.5 -15.5 -2.5l0 -327h-137v612h-170v110h477v-110l-170 0z" />
<glyph unicode="&#1036;" horiz-adv-x="536" d="M187 409l166 313h155l-183 -313l189 -409h-153l-120 288l-54 -71v-217h-137v722h137zM457 955l-159 -180h-87l110 180z" />
<glyph unicode="&#1038;" horiz-adv-x="542" d="M162 722l111 -383l111 383h150l-196 -584q-14 -43 -29.5 -72.5q-15.5 -29.5 -33.5 -48q-18 -18.5 -39 -26.5q-21 -8 -46 -8q-24 0 -44.5 3.5q-20.5 3.5 -38.5 9.5l0 105q6 -2 15 -5q9 -3 23 -3q20 0 35 13.5q15 13.5 26 44.5l-198 571zM221 918q0 -41 19.5 -61.5q19.5 -20.5 52.5 -20.5q33 0 52.5 20.5q19.5 20.5 19.5 61.5l71 0q0 -29 -6.5 -56q-6.5 -27 -22.5 -48q-16 -21 -44.5 -33.5q-28.5 -12.5 -71.5 -12.5q-42 0 -69.5 12.5q-27.5 12.5 -43 33.5q-15.5 21 -22 48q-6.5 27 -6.5 56z" />
<glyph unicode="&#1039;" horiz-adv-x="555" d="M178 110h199v612h128v-722h-166v-146h-123v146h-166v722l128 0z" />
<glyph unicode="&#1040;" horiz-adv-x="539" d="M188 722h184l160 -722h-148l-34 188h-155l-43 -188h-147zM333 295l-55 336l-66 -336z" />
<glyph unicode="&#1041;" horiz-adv-x="531" d="M187 103h79q38 0 59 25.5q21 25.5 21 86.5q0 54 -21 86.5q-21 32.5 -59 32.5h-79zM433 722v-103h-246v-175h115q42 0 76 -19q34 -19 58 -49.5q24 -30.5 37 -68.5q13 -38 13 -76q0 -52 -11.5 -94.5q-11.5 -42.5 -33.5 -73q-22 -30.5 -54 -47q-32 -16.5 -73 -16.5h-264l0 722z" />
<glyph unicode="&#1042;" horiz-adv-x="527" d="M187 429h72q45 0 65 25.5q20 25.5 20 72.5q0 46 -18 69q-18 23 -65 23h-74zM187 103h88q38 0 57 25.5q19 25.5 19 86.5q0 54 -19 82.5q-19 28.5 -57 28.5h-88zM50 722h253q48 0 81.5 -14.5q33.5 -14.5 55 -39q21.5 -24.5 31.5 -56.5q10 -32 10 -66q0 -26 -6.5 -52q-6.5 -26 -19.5 -48q-13 -22 -31 -38q-18 -16 -40 -20q54 -22 80.5 -62.5q26.5 -40.5 26.5 -111.5q0 -47 -10 -86q-10 -39 -30.5 -67.5q-20.5 -28.5 -51.5 -44.5q-31 -16 -73 -16l-276 0z" />
<glyph unicode="&#1043;" horiz-adv-x="450" d="M429 722v-110h-242v-612h-137l0 722z" />
<glyph unicode="&#1044;" horiz-adv-x="623" d="M549 722v-612h44v-255h-132v145h-299v-145h-132v255h43q18 40 30.5 77.5q12.5 37.5 20.5 81.5q8 44 11.5 98.5q3.5 54.5 3.5 129.5v225zM274 612v-164q0 -62 -4.5 -110q-4.5 -48 -12.5 -87.5q-8 -39.5 -20 -73q-12 -33.5 -28 -67.5l203 0l0 502z" />
<glyph unicode="&#1045;" horiz-adv-x="472" d="M436 722v-110h-249v-168h227v-110h-227v-224h249v-110h-386l0 722z" />
<glyph unicode="&#1046;" horiz-adv-x="816" d="M171 722l166 -313v313h137v-313l166 313h155l-183 -313l189 -409h-153l-120 288l-54 -71v-217h-137v217l-54 71l-120 -288h-153l189 409l-183 313z" />
<glyph unicode="&#1047;" horiz-adv-x="526" d="M40 514q0 47 14.5 87.5q14.5 40.5 42 70q27.5 29.5 67.5 46.5q40 17 91 17q36 0 74.5 -9.5q38.5 -9.5 70 -32q31.5 -22.5 51.5 -59q20 -36.5 20 -91.5q0 -57 -30.5 -100.5q-30.5 -43.5 -80.5 -56.5q54 -14 87.5 -59q33.5 -45 33.5 -127q0 -109 -57 -163q-57 -54 -165 -54q-44 0 -85.5 11q-41.5 11 -73.5 35.5q-32 24.5 -51.5 64.5q-19.5 40 -19.5 98l133 0q0 -19 4 -36.5q4 -17.5 14.5 -31.5q10.5 -14 27.5 -22.5q17 -8.5 43 -8.5q50 0 70 31.5q20 31.5 20 88.5q0 64 -28.5 90q-28.5 26 -71.5 26h-29v103h29q38 0 64 22q26 22 26 70q0 18 -3.5 36q-3.5 18 -12.5 32.5q-9 14.5 -23.5 23.5q-14.5 9 -36.5 9q-41 0 -61.5 -31q-20.5 -31 -20.5 -80z" />
<glyph unicode="&#1048;" horiz-adv-x="560" d="M178 722v-270q0 -32 -1 -67.5q-1 -35.5 -3 -69.5q-2 -34 -5 -65q-3 -31 -8 -53l1 0l200 525h148v-722h-128v273q0 83 3 142.5q3 59.5 14 108.5l-1 0l-200 -524h-148l0 722z" />
<glyph unicode="&#1049;" horiz-adv-x="560" d="M178 722v-271q0 -32 -1 -67.5q-1 -35.5 -3 -69.5q-2 -34 -5 -64.5q-3 -30.5 -8 -52.5l1 0l200 525h148v-722h-128v274q0 83 3 142q3 59 14 108l-1 0l-200 -524h-148v722zM203 918q0 -41 19.5 -61.5q19.5 -20.5 52.5 -20.5q33 0 52.5 20.5q19.5 20.5 19.5 61.5l71 0q0 -29 -6.5 -56q-6.5 -27 -22.5 -48q-16 -21 -44.5 -33.5q-28.5 -12.5 -71.5 -12.5q-42 0 -69.5 12.5q-27.5 12.5 -43 33.5q-15.5 21 -22 48q-6.5 27 -6.5 56z" />
<glyph unicode="&#1050;" horiz-adv-x="536" d="M187 409l166 313h155l-183 -313l189 -409h-153l-120 288l-54 -71v-217h-137v722l137 0z" />
<glyph unicode="&#1051;" horiz-adv-x="591" d="M535 722v-722h-137v612h-146v-277q0 -90 -8 -156q-8 -66 -26.5 -108.5q-18.5 -42.5 -48 -63q-29.5 -20.5 -72.5 -20.5q-24 0 -43.5 2q-19.5 2 -39.5 7l0 101q7 -2 19.5 -3.5q12.5 -1.5 24.5 -1.5q16 0 27 7.5q11 7.5 18 36q7 28.5 10.5 85.5q3.5 57 3.5 155l0 346z" />
<glyph unicode="&#1052;" horiz-adv-x="730" d="M269 722l96 -469l96 469h219v-722h-128v654h-1l-137 -654h-98l-137 653h-1v-653h-128l0 722z" />
<glyph unicode="&#1053;" horiz-adv-x="555" d="M187 444h181v278h137v-722h-137v334h-181v-334h-137v722l137 0z" />
<glyph unicode="&#1054;" horiz-adv-x="557" d="M45 488q0 68 17.5 115q17.5 47 48.5 76.5q31 29.5 74.5 42.5q43.5 13 94.5 13q52 0 95 -12.5q43 -12.5 73.5 -42q30.5 -29.5 47 -76.5q16.5 -47 16.5 -116v-262q0 -69 -16.5 -115.5q-16.5 -46.5 -47 -75q-30.5 -28.5 -73.5 -40.5q-43 -12 -95 -12q-51 0 -94.5 12.5q-43.5 12.5 -74.5 41q-31 28.5 -48.5 75q-17.5 46.5 -17.5 114.5zM280 625q-49 0 -72 -31.5q-23 -31.5 -23 -89.5v-295q0 -57 23 -86.5q23 -29.5 72 -29.5q45 0 68.5 29.5q23.5 29.5 23.5 86.5v293q0 58 -23.5 90.5t-68.5 32.5z" />
<glyph unicode="&#1055;" horiz-adv-x="555" d="M505 722v-722h-137v612h-181v-612h-137l0 722z" />
<glyph unicode="&#1056;" horiz-adv-x="544" d="M187 0h-137v722h259q44 0 79 -16.5q35 -16.5 60 -45.5q25 -29 38 -67.5q13 -38.5 13 -81.5q0 -45 -13.5 -84.5q-13.5 -39.5 -38.5 -69q-25 -29.5 -60.5 -46.5q-35.5 -17 -79.5 -17h-120zM187 401h69q52 0 77.5 28q25.5 28 25.5 80q0 51 -25.5 78.5q-25.5 27.5 -77.5 27.5l-69 0z" />
<glyph unicode="&#1057;" horiz-adv-x="531" d="M349 487v16q0 68 -19 95q-19 27 -62 27q-44 0 -63.5 -27q-19.5 -27 -19.5 -95v-285q0 -71 19 -98q19 -27 63 -27q42 0 62 27.5q20 27.5 20 97.5v39h137v-31q0 -49 -10 -93q-10 -44 -35 -77.5q-25 -33.5 -67 -53q-42 -19.5 -106 -19.5q-68 0 -111 19.5q-43 19.5 -68 53q-25 33.5 -34.5 77q-9.5 43.5 -9.5 91.5v263q0 128 56.5 188q56.5 60 168.5 60q106 0 161 -56q55 -56 55 -156l0 -36z" />
<glyph unicode="&#1058;" horiz-adv-x="513" d="M325 0h-137v612h-170v110h477v-110l-170 0z" />
<glyph unicode="&#1059;" horiz-adv-x="542" d="M162 722l111 -383l111 383h150l-196 -584q-14 -43 -29.5 -72.5q-15.5 -29.5 -33.5 -48q-18 -18.5 -39 -26.5q-21 -8 -46 -8q-24 0 -44.5 3.5q-20.5 3.5 -38.5 9.5l0 105q6 -2 15 -5q9 -3 23 -3q20 0 35 13.5q15 13.5 26 44.5l-198 571z" />
<glyph unicode="&#1060;" horiz-adv-x="755" d="M444 722v-82h40q44 0 86.5 -16.5q42.5 -16.5 75.5 -50.5q33 -34 53.5 -86.5q20.5 -52.5 20.5 -123.5q0 -73 -20.5 -125q-20.5 -52 -53.5 -85q-33 -33 -75.5 -48.5q-42.5 -15.5 -86.5 -15.5h-40v-89h-137v89h-40q-44 0 -86.5 15.5q-42.5 15.5 -75.5 48.5q-33 33 -53.5 85q-20.5 52 -20.5 125q0 71 20.5 123.5q20.5 52.5 53.5 86.5q33 34 75.5 50.5q42.5 16.5 86.5 16.5h40v82zM307 533h-32q-49 0 -76.5 -47q-27.5 -47 -27.5 -123q0 -81 26.5 -124q26.5 -43 77.5 -43h32zM444 196h32q51 0 77.5 43q26.5 43 26.5 124q0 76 -27.5 123q-27.5 47 -76.5 47l-32 0z" />
<glyph unicode="&#1061;" horiz-adv-x="549" d="M181 722l93 -235l98 235h154l-178 -351l184 -371h-153l-105 266l-109 -266h-150l174 371l-167 351z" />
<glyph unicode="&#1062;" horiz-adv-x="577" d="M187 110h181v612h137v-612h44v-256h-128v146h-371v722l137 0z" />
<glyph unicode="&#1063;" horiz-adv-x="554" d="M187 722v-197q0 -52 25.5 -80q25.5 -28 77.5 -28q15 0 36.5 2q21.5 2 32.5 5l0 298h137v-722h-137v317q-29 -6 -55.5 -8q-26.5 -2 -60.5 -2q-44 0 -79.5 14.5q-35.5 14.5 -61 41q-25.5 26.5 -39 63q-13.5 36.5 -13.5 81.5l0 215z" />
<glyph unicode="&#1064;" horiz-adv-x="807" d="M50 0v722h137v-612h148v612h137v-612h148v612h137l0 -722z" />
<glyph unicode="&#1065;" horiz-adv-x="822" d="M187 110h148v612h137v-612h148v612h137v-612h44v-255h-128v145h-623v722l137 0z" />
<glyph unicode="&#1066;" horiz-adv-x="597" d="M253 103h79q38 0 59 25.5q21 25.5 21 86.5q0 54 -21 86.5q-21 32.5 -59 32.5h-79zM253 722v-278h115q42 0 76 -19q34 -19 58 -49.5q24 -30.5 37 -68.5q13 -38 13 -76q0 -52 -11.5 -94.5q-11.5 -42.5 -33.5 -73q-22 -30.5 -54 -47q-32 -16.5 -73 -16.5h-264v619h-124l0 103z" />
<glyph unicode="&#1067;" horiz-adv-x="777" d="M187 103h79q38 0 59 25.5q21 25.5 21 86.5q0 54 -21 86.5q-21 32.5 -59 32.5h-79zM187 444h115q42 0 76 -19q34 -19 58 -49.5q24 -30.5 37 -68.5q13 -38 13 -76q0 -52 -11.5 -94.5q-11.5 -42.5 -33.5 -73q-22 -30.5 -54 -47q-32 -16.5 -73 -16.5h-264v722h137zM727 0h-137v722l137 0z" />
<glyph unicode="&#1068;" horiz-adv-x="531" d="M187 103h79q38 0 59 25.5q21 25.5 21 86.5q0 54 -21 86.5q-21 32.5 -59 32.5h-79zM187 444h115q42 0 76 -19q34 -19 58 -49.5q24 -30.5 37 -68.5q13 -38 13 -76q0 -52 -11.5 -94.5q-11.5 -42.5 -33.5 -73q-22 -30.5 -54 -47q-32 -16.5 -73 -16.5h-264v722l137 0z" />
<glyph unicode="&#1069;" horiz-adv-x="531" d="M45 503v30q0 45 14 82q14 37 41.5 63.5q27.5 26.5 69 41.5q41.5 15 95.5 15q56 0 97.5 -15q41.5 -15 69 -42q27.5 -27 41 -64q13.5 -37 13.5 -81v-308q0 -126 -56 -184q-56 -58 -163 -58q-113 0 -167.5 55q-54.5 55 -54.5 181v35h137v-50q0 -53 16.5 -82q16.5 -29 66.5 -29q40 0 60.5 30.5q20.5 30.5 20.5 84.5v126h-115v110h115v59q0 28 -3.5 50.5q-3.5 22.5 -12.5 38.5q-9 16 -24.5 24.5q-15.5 8.5 -40.5 8.5q-48 0 -65.5 -32.5q-17.5 -32.5 -17.5 -89.5z" />
<glyph unicode="&#1070;" horiz-adv-x="831" d="M187 444h124v51q0 68 18 114q18 46 50 74q32 28 76 40q44 12 95 12q52 0 95.5 -12q43.5 -12 74.5 -40q31 -28 48.5 -74.5q17.5 -46.5 17.5 -115.5v-264q0 -69 -17.5 -116q-17.5 -47 -48.5 -76q-31 -29 -74.5 -41.5q-43.5 -12.5 -95.5 -12.5q-51 0 -95 12.5q-44 12.5 -76 41q-32 28.5 -50 75.5q-18 47 -18 115v107h-124v-334h-137v722h137zM451 216q0 -57 25 -90q25 -33 74 -33q45 0 70.5 33q25.5 33 25.5 90v290q0 57 -25.5 88q-25.5 31 -70.5 31q-49 0 -74 -31q-25 -31 -25 -88z" />
<glyph unicode="&#1071;" horiz-adv-x="545" d="M291 294l-124 -294h-149l140 310q-54 24 -83.5 78q-29.5 54 -29.5 123q0 43 12.5 81.5q12.5 38.5 36.5 67.5q24 29 58.5 45.5q34.5 16.5 78.5 16.5h264v-722h-137v294zM358 615h-69q-52 0 -78 -27.5q-26 -27.5 -26 -78.5q0 -52 26 -80q26 -28 78 -28l69 0z" />
<glyph unicode="&#1072;" horiz-adv-x="477" d="M217 230q-23 -15 -32.5 -37q-9.5 -22 -9.5 -41q0 -31 12.5 -53q12.5 -22 41.5 -22q29 0 49 17.5q20 17.5 20 54.5v133zM55 378v27q0 33 13.5 61q13.5 28 38 49q24.5 21 58 33q33.5 12 73.5 12q40 0 74.5 -8q34.5 -8 60 -25q25.5 -17 40 -43.5q14.5 -26.5 14.5 -63.5v-340q0 -28 2.5 -47q2.5 -19 13.5 -33l-129 0q-6 9 -8 25q-2 16 -2 27q-18 -32 -44 -50q-26 -18 -75 -18q-61 0 -100.5 37q-39.5 37 -39.5 114q0 71 34 111q34 40 105 70q22 9 43 18.5q21 9.5 36.5 21q15.5 11.5 25 25q9.5 13.5 9.5 30.5q0 48 -59 48q-26 0 -45 -16.5q-19 -16.5 -19 -53.5l0 -11z" />
<glyph unicode="&#1073;" horiz-adv-x="477" d="M152 466q8 12 18.5 24.5q10.5 12.5 23.5 22.5q13 10 30 16.5q17 6.5 38 6.5q88 0 129 -47q41 -47 41 -131v-196q0 -36 -10 -68q-10 -32 -33 -56.5q-23 -24.5 -59.5 -39q-36.5 -14.5 -90.5 -14.5q-55 0 -92 14.5q-37 14.5 -59.5 39q-22.5 24.5 -32.5 56.5q-10 32 -10 68v253q0 115 44 181.5q44 66.5 123 86.5q52 13 79 23.5q27 10.5 35 28.5l87 0q-10 -41 -39.5 -70q-29.5 -29 -99.5 -47q-29 -8 -50.5 -18.5q-21.5 -10.5 -36.5 -28q-15 -17.5 -24.5 -43q-9.5 -25.5 -13.5 -62.5zM239 81q30 0 47.5 13.5q17.5 13.5 17.5 51.5v228q0 38 -17 51.5q-17 13.5 -47 13.5q-29 0 -48 -13.5q-19 -13.5 -19 -51.5v-228q0 -37 18.5 -51t47.5 -14z" />
<glyph unicode="&#1074;" horiz-adv-x="463" d="M173 330h34q35 0 54 15q19 15 19 48q0 34 -19 48.5q-19 14.5 -54 14.5h-34zM173 90h41q15 0 29 3q14 3 24.5 11.5q10.5 8.5 16.5 23q6 14.5 6 37.5q0 42 -22.5 61q-22.5 19 -53.5 19h-41zM50 546h203q28 0 56 -8q28 -8 50 -23.5q22 -15.5 35.5 -39.5q13.5 -24 13.5 -57q0 -27 -7.5 -47.5q-7.5 -20.5 -19 -36.5q-11.5 -16 -26 -26q-14.5 -10 -29.5 -16q17 -7 33.5 -16.5q16.5 -9.5 29.5 -25.5q13 -16 21 -39q8 -23 8 -56q0 -43 -14 -72.5q-14 -29.5 -36.5 -48q-22.5 -18.5 -51.5 -26.5q-29 -8 -58 -8l-208 0z" />
<glyph unicode="&#1075;" horiz-adv-x="385" d="M370 546v-97h-197v-449h-123l0 546z" />
<glyph unicode="&#1076;" horiz-adv-x="517" d="M60 97q12 24 21 48q9 24 15 54.5q6 30.5 8.5 70.5q2.5 40 2.5 95v181h340v-449h45v-229h-116v132h-235v-132h-116v229zM324 449h-99v-126q0 -48 -3 -81q-3 -33 -8 -58q-5 -25 -12.5 -45q-7.5 -20 -17.5 -42l140 0z" />
<glyph unicode="&#1077;" horiz-adv-x="466" d="M168 260v-119q0 -30 17.5 -45q17.5 -15 47.5 -15q30 0 47.5 15.5q17.5 15.5 17.5 44.5v31h123v-15q0 -46 -14 -79q-14 -33 -39 -54q-25 -21 -59.5 -30.5q-34.5 -9.5 -75.5 -9.5q-41 0 -75.5 9.5q-34.5 9.5 -59.5 30.5q-25 21 -39 53.5q-14 32.5 -14 79.5v230q0 46 14 79q14 33 39 54q25 21 59.5 30.5q34.5 9.5 75.5 9.5q41 0 75.5 -9.5q34.5 -9.5 59.5 -30.5q25 -21 39 -54q14 -33 14 -79v-127zM298 350v53q0 29 -17.5 44.5q-17.5 15.5 -47.5 15.5q-30 0 -47.5 -15q-17.5 -15 -17.5 -45l0 -53z" />
<glyph unicode="&#1078;" horiz-adv-x="616" d="M364 546v-203l113 203h129l-129 -220l129 -326h-137l-76 212l-29 -56v-156h-118v156l-29 56l-76 -212h-137l129 326l-129 220h129l113 -203l0 203z" />
<glyph unicode="&#1079;" horiz-adv-x="466" d="M46 379q2 46 17.5 80q15.5 34 40.5 56.5q25 22.5 57 33.5q32 11 67 11q40 0 73 -10.5q33 -10.5 57 -30q24 -19.5 37.5 -47q13.5 -27.5 13.5 -61.5q0 -48 -24.5 -77q-24.5 -29 -62.5 -43q46 -14 72.5 -50q26.5 -36 26.5 -96q0 -81 -51 -121q-51 -40 -138 -40q-37 0 -71.5 9.5q-34.5 9.5 -61.5 31.5q-27 22 -43 58q-16 36 -16 90l120 0q0 -18 3 -34.5q3 -16.5 10 -29q7 -12.5 19.5 -20.5q12.5 -8 31.5 -8q39 0 54 21.5q15 21.5 15 62.5q0 38 -18.5 57q-18.5 19 -50.5 19h-29v90h26q37 0 50.5 18.5q13.5 18.5 13.5 50.5q0 30 -12.5 46.5q-12.5 16.5 -44.5 16.5q-34 0 -46 -23q-12 -23 -15 -61z" />
<glyph unicode="&#1080;" horiz-adv-x="471" d="M170 546v-326l132 326h119v-546h-120v322l-131 -322h-120l0 546z" />
<glyph unicode="&#1081;" horiz-adv-x="471" d="M170 546v-326l132 326h119v-546h-120v322l-131 -322h-120v546zM170 722q0 -18 5 -28q5 -10 13.5 -15q8.5 -5 20 -6.5q11.5 -1.5 25.5 -1.5q29 0 48 8.5q19 8.5 19 42.5l66 0q0 -60 -31.5 -91.5q-31.5 -31.5 -99.5 -31.5q-34 0 -58.5 10q-24.5 10 -40 27q-15.5 17 -23 39q-7.5 22 -7.5 47z" />
<glyph unicode="&#1082;" horiz-adv-x="425" d="M173 343l113 203h129l-129 -220l129 -326h-137l-76 212l-29 -56v-156h-123v546l123 0z" />
<glyph unicode="&#1083;" horiz-adv-x="489" d="M439 546v-546h-123v449h-101v-219q0 -72 -9.5 -118.5q-9.5 -46.5 -26.5 -73.5q-17 -27 -40.5 -37.5q-23.5 -10.5 -50.5 -10.5q-20 0 -36 2.5q-16 2.5 -35 7.5l0 90q16 -3 27 -3q17 0 27 6.5q10 6.5 15.5 32q5.5 25.5 7 75.5q1.5 50 1.5 137l0 208z" />
<glyph unicode="&#1084;" horiz-adv-x="594" d="M216 546l81 -365l81 365h166v-546h-120v387h-1l-87 -387h-78l-87 387h-1v-387h-120l0 546z" />
<glyph unicode="&#1085;" horiz-adv-x="464" d="M173 338h118v208h123v-546h-123v241h-118v-241h-123v546l123 0z" />
<glyph unicode="&#1086;" horiz-adv-x="477" d="M239 560q54 0 90.5 -14.5q36.5 -14.5 59.5 -39q23 -24.5 33 -56.5q10 -32 10 -68v-220q0 -36 -10 -68q-10 -32 -33 -56.5q-23 -24.5 -59.5 -39q-36.5 -14.5 -90.5 -14.5q-55 0 -92 14.5q-37 14.5 -59.5 39q-22.5 24.5 -32.5 56.5q-10 32 -10 68v220q0 36 10 68q10 32 32.5 56.5q22.5 24.5 59.5 39q37 14.5 92 14.5zt0 0zM239 463q-29 0 -47.5 -13.5q-18.5 -13.5 -18.5 -51.5v-252q0 -37 19 -51q19 -14 48 -14q30 0 47 13.5q17 13.5 17 51.5v252q0 38 -17.5 51.5t-47.5 13.5z" />
<glyph unicode="&#1087;" horiz-adv-x="464" d="M414 546v-546h-123v449h-118v-449h-123l0 546z" />
<glyph unicode="&#1088;" horiz-adv-x="466" d="M234 459q-23 0 -42 -16q-19 -16 -19 -50v-246q0 -34 19 -50q19 -16 42 -16q24 0 41.5 16q17.5 16 17.5 48v250q0 32 -17.5 48q-17.5 16 -41.5 16zt0 0zM173 546v-61q14 38 43.5 56.5q29.5 18.5 61.5 18.5q28 0 54 -8.5q26 -8.5 45.5 -27q19.5 -18.5 31.5 -47.5q12 -29 12 -70v-269q0 -39 -12 -68q-12 -29 -31.5 -48q-19.5 -19 -45.5 -28.5q-26 -9.5 -54 -9.5q-73 0 -105 74l0 -240h-123l0 728z" />
<glyph unicode="&#1089;" horiz-adv-x="437" d="M273 348v62q0 25 -14 37q-14 12 -34 12q-23 0 -37.5 -13.5q-14.5 -13.5 -14.5 -42.5v-262q0 -29 14.5 -42.5q14.5 -13.5 37.5 -13.5q20 0 34 12q14 12 14 37v77h123v-83q0 -36 -15.5 -63q-15.5 -27 -40 -45q-24.5 -18 -55 -27q-30.5 -9 -60.5 -9q-40 0 -73 11q-33 11 -57 31.5q-24 20.5 -37 48.5q-13 28 -13 63v268q0 34 13 62.5q13 28.5 37 49q24 20.5 57 31.5q33 11 73 11q30 0 60.5 -9q30.5 -9 55 -27q24.5 -18 40 -45q15.5 -27 15.5 -63l0 -68z" />
<glyph unicode="&#1090;" horiz-adv-x="398" d="M385 546v-97h-126v-449h-123v449h-126l0 97z" />
<glyph unicode="&#1091;" horiz-adv-x="434" d="M145 546l73 -419h2l70 419h129l-145 -615q-8 -34 -19 -56q-11 -22 -26.5 -34.5q-15.5 -12.5 -36 -17.5q-20.5 -5 -48.5 -5q-18 0 -33 1q-15 1 -32 3l0 93h45q14 0 20.5 10.5q6.5 10.5 6.5 25.5q0 3 -6.5 30.5q-6.5 27.5 -22.5 94.5q-16 67 -43.5 180.5q-27.5 113.5 -70.5 289.5z" />
<glyph unicode="&#1092;" horiz-adv-x="709" d="M416 485q14 38 43.5 56.5q29.5 18.5 61.5 18.5q28 0 54 -8.5q26 -8.5 45.5 -27q19.5 -18.5 31.5 -47.5q12 -29 12 -70v-269q0 -39 -12 -68q-12 -29 -31.5 -48q-19.5 -19 -45.5 -28.5q-26 -9.5 -54 -9.5q-73 0 -105 74l0 -240h-123v240q-32 -74 -105 -74q-28 0 -54 9.5q-26 9.5 -45.5 28.5q-19.5 19 -31.5 48q-12 29 -12 68v269q0 41 12 70q12 29 31.5 47.5q19.5 18.5 45.5 27q26 8.5 54 8.5q32 0 61.5 -18.5q29.5 -18.5 43.5 -56.5l0 237h123zM477 459q-23 0 -42 -16q-19 -16 -19 -50v-246q0 -34 19 -50q19 -16 42 -16q24 0 41.5 16q17.5 16 17.5 48v250q0 32 -17.5 48q-17.5 16 -41.5 16zt0 0zM234 459q-23 0 -42 -16q-19 -16 -19 -50v-246q0 -34 19 -50q19 -16 42 -16q24 0 41.5 16q17.5 16 17.5 48v250q0 32 -17.5 48t-41.5 16z" />
<glyph unicode="&#1093;" horiz-adv-x="423" d="M151 546l62 -151l62 151h136l-136 -273l143 -273h-143l-62 156l-62 -156h-143l143 273l-136 273z" />
<glyph unicode="&#1094;" horiz-adv-x="483" d="M173 97h118v449h123v-449h44v-229h-116v132h-292v546l123 0z" />
<glyph unicode="&#1095;" horiz-adv-x="459" d="M168 546v-155q0 -67 59 -67q20 0 35.5 2q15.5 2 23.5 7l0 213h123v-546h-123v240q-20 -8 -44.5 -12.5q-24.5 -4.5 -60.5 -4.5q-28 0 -53 9q-25 9 -43.5 28q-18.5 19 -29 48.5q-10.5 29.5 -10.5 70.5l0 167z" />
<glyph unicode="&#1096;" horiz-adv-x="700" d="M170 97h118v449h120v-449h118v449h120v-546h-596v546l120 0z" />
<glyph unicode="&#1097;" horiz-adv-x="712" d="M170 97h118v449h120v-449h118v449h120v-449h41v-230h-114v133h-523v546l120 0z" />
<glyph unicode="&#1098;" horiz-adv-x="513" d="M224 97h40q15 0 28.5 3q13.5 3 24 11q10.5 8 17 22q6.5 14 6.5 37q0 41 -22.5 56q-22.5 15 -53.5 15h-40zM224 338h79q30 0 59.5 -10q29.5 -10 53 -31q23.5 -21 38 -52.5q14.5 -31.5 14.5 -74.5q0 -43 -15 -75q-15 -32 -38.5 -53q-23.5 -21 -53 -31.5q-29.5 -10.5 -58.5 -10.5h-202v449h-97v97l220 0z" />
<glyph unicode="&#1099;" horiz-adv-x="669" d="M173 97h40q15 0 28.5 3q13.5 3 24 11q10.5 8 17 22q6.5 14 6.5 37q0 41 -22.5 56q-22.5 15 -53.5 15h-40zM173 338h79q30 0 59.5 -10q29.5 -10 53 -31q23.5 -21 38 -52.5q14.5 -31.5 14.5 -74.5q0 -43 -15 -75q-15 -32 -38.5 -53q-23.5 -21 -53 -31.5q-29.5 -10.5 -58.5 -10.5h-202v546h123zM619 0h-123v546l123 0z" />
<glyph unicode="&#1100;" horiz-adv-x="462" d="M173 97h40q15 0 28.5 3q13.5 3 24 11q10.5 8 17 22q6.5 14 6.5 37q0 41 -22.5 56q-22.5 15 -53.5 15h-40zM173 338h79q30 0 59.5 -10q29.5 -10 53 -31q23.5 -21 38 -52.5q14.5 -31.5 14.5 -74.5q0 -43 -15 -75q-15 -32 -38.5 -53q-23.5 -21 -53 -31.5q-29.5 -10.5 -58.5 -10.5h-202v546l123 0z" />
<glyph unicode="&#1101;" horiz-adv-x="441" d="M45 365v51q0 36 15.5 63q15.5 27 40 45q24.5 18 55 27q30.5 9 60.5 9q40 0 73 -11q33 -11 57 -31.5q24 -20.5 37 -49q13 -28.5 13 -62.5v-268q0 -35 -13 -63q-13 -28 -37 -48.5q-24 -20.5 -57 -31.5q-33 -11 -73 -11q-30 0 -60.5 9q-30.5 9 -55 27q-24.5 18 -40 45q-15.5 27 -15.5 63v66h123v-60q0 -25 14 -37q14 -12 34 -12q23 0 37.5 13.5q14.5 13.5 14.5 42.5v100h-78v97h78v65q0 29 -14.5 42.5q-14.5 13.5 -37.5 13.5q-20 0 -34 -12q-14 -12 -14 -37l0 -45z" />
<glyph unicode="&#1102;" horiz-adv-x="702" d="M173 338h97v44q0 36 10 68q10 32 32.5 56.5q22.5 24.5 59.5 39q37 14.5 92 14.5q54 0 90.5 -14.5q36.5 -14.5 59.5 -39q23 -24.5 33 -56.5q10 -32 10 -68v-220q0 -36 -10 -68q-10 -32 -33 -56.5q-23 -24.5 -59.5 -39q-36.5 -14.5 -90.5 -14.5q-55 0 -92 14.5q-37 14.5 -59.5 39q-22.5 24.5 -32.5 56.5q-10 32 -10 68v79h-97v-241h-123v546h123zM464 463q-29 0 -47.5 -13.5q-18.5 -13.5 -18.5 -51.5v-252q0 -37 18.5 -51q18.5 -14 47.5 -14q30 0 47.5 13.5q17.5 13.5 17.5 51.5v252q0 38 -17.5 51.5t-47.5 13.5z" />
<glyph unicode="&#1103;" horiz-adv-x="462" d="M289 452h-48q-29 0 -48.5 -19q-19.5 -19 -19.5 -57q0 -36 16 -55.5q16 -19.5 47 -19.5h53zM241 207l-81 -207h-133l100 228q-39 22 -60.5 58q-21.5 36 -21.5 90q0 43 15 75q15 32 38.5 53q23.5 21 53 31.5q29.5 10.5 58.5 10.5h202v-546h-123l0 207z" />
<glyph unicode="&#1105;" horiz-adv-x="466" d="M168 260v-119q0 -30 17.5 -45q17.5 -15 47.5 -15q30 0 47.5 15.5q17.5 15.5 17.5 44.5v31h123v-15q0 -46 -14 -79q-14 -33 -39 -54q-25 -21 -59.5 -30.5q-34.5 -9.5 -75.5 -9.5q-41 0 -75.5 9.5q-34.5 9.5 -59.5 30.5q-25 21 -39 53.5q-14 32.5 -14 79.5v230q0 46 14 79q14 33 39 54q25 21 59.5 30.5q34.5 9.5 75.5 9.5q41 0 75.5 -9.5q34.5 -9.5 59.5 -30.5q25 -21 39 -54q14 -33 14 -79v-127zM298 350v53q0 29 -17.5 44.5q-17.5 15.5 -47.5 15.5q-30 0 -47.5 -15q-17.5 -15 -17.5 -45v-53zM92 722h109v-109h-109zM269 722h109v-109l-109 0z" />
<glyph unicode="&#1106;" horiz-adv-x="479" d="M188 768v-66h109v-80h-109v-121q14 20 40.5 39.5q26.5 19.5 64.5 19.5q28 0 53 -8.5q25 -8.5 43.5 -27q18.5 -18.5 29 -48q10.5 -29.5 10.5 -70.5v-492q0 -28 -9 -46.5q-9 -18.5 -25.5 -30q-16.5 -11.5 -39 -16q-22.5 -4.5 -49.5 -4.5q-5 0 -12.5 0q-7.5 0 -15 0.5q-7.5 0.5 -13 1q-5.5 0.5 -6.5 0.5l0 95h17q14 0 22 9q8 9 8 38v431q0 32 -16 49.5q-16 17.5 -45 17.5q-26 0 -41.5 -17.5q-15.5 -17.5 -15.5 -49.5v-392h-123v622h-55v80h55l0 66z" />
<glyph unicode="&#1107;" horiz-adv-x="385" d="M370 546v-97h-197v-449h-123v546zM369 743l-127 -144h-69l88 144z" />
<glyph unicode="&#1108;" horiz-adv-x="437" d="M273 365v45q0 25 -14 37q-14 12 -34 12q-23 0 -37.5 -13.5q-14.5 -13.5 -14.5 -42.5v-65h78v-97h-78v-100q0 -29 14.5 -42.5q14.5 -13.5 37.5 -13.5q20 0 34 12q14 12 14 37v60h123v-66q0 -36 -15.5 -63q-15.5 -27 -40 -45q-24.5 -18 -55 -27q-30.5 -9 -60.5 -9q-40 0 -73 11q-33 11 -57 31.5q-24 20.5 -37 48.5q-13 28 -13 63v268q0 34 13 62.5q13 28.5 37 49q24 20.5 57 31.5q33 11 73 11q30 0 60.5 -9q30.5 -9 55 -27q24.5 -18 40 -45q15.5 -27 15.5 -63l0 -51z" />
<glyph unicode="&#1109;" horiz-adv-x="445" d="M160 176v-30q0 -35 17.5 -50q17.5 -15 43.5 -15q24 0 42.5 11.5q18.5 11.5 18.5 39.5q0 23 -14 40.5q-14 17.5 -42 35.5l-101 64q-35 23 -58.5 56q-23.5 33 -23.5 86q0 36 14 63.5q14 27.5 38 45.5q24 18 56 27.5q32 9.5 68 9.5q40 0 73 -11.5q33 -11.5 56.5 -33q23.5 -21.5 36.5 -54q13 -32.5 13 -74.5v-11h-120v13q0 36 -16.5 55q-16.5 19 -42.5 19q-53 0 -53 -49q0 -17 9.5 -30q9.5 -13 36.5 -30l86 -54q19 -12 38 -27.5q19 -15.5 34.5 -36q15.5 -20.5 25 -47q9.5 -26.5 9.5 -59.5q0 -51 -19.5 -80q-19.5 -29 -48.5 -43.5q-29 -14.5 -62 -18.5q-33 -4 -59 -4q-35 0 -67 10.5q-32 10.5 -56 31.5q-24 21 -38.5 52q-14.5 31 -14.5 73l0 25z" />
<glyph unicode="&#1110;" horiz-adv-x="223" d="M50 722h123v-123h-123zM173 0h-123v546l123 0z" />
<glyph unicode="&#1111;" horiz-adv-x="223" d="M173 0h-123v546h123zM-32 722h109v-109h-109zM146 722h109v-109l-109 0z" />
<glyph unicode="&#1112;" horiz-adv-x="223" d="M50 722h123v-123h-123zM173 546v-632q0 -28 -9 -46.5q-9 -18.5 -25.5 -30q-16.5 -11.5 -39 -16q-22.5 -4.5 -49.5 -4.5q-5 0 -12.5 0q-7.5 0 -15 0.5q-7.5 0.5 -13 1q-5.5 0.5 -6.5 0.5l0 95h17q14 0 22 9q8 9 8 38l0 585z" />
<glyph unicode="&#1113;" horiz-adv-x="728" d="M439 546v-208h79q30 0 59.5 -10q29.5 -10 53 -31q23.5 -21 38 -52.5q14.5 -31.5 14.5 -74.5q0 -43 -15 -75q-15 -32 -38.5 -53q-23.5 -21 -53 -31.5q-29.5 -10.5 -58.5 -10.5h-202v449h-101v-219q0 -72 -9.5 -118.5q-9.5 -46.5 -26.5 -73.5q-17 -27 -40.5 -37.5q-23.5 -10.5 -50.5 -10.5q-20 0 -36 2.5q-16 2.5 -35 7.5l0 90q16 -3 27 -3q17 0 27 6.5q10 6.5 15.5 32q5.5 25.5 7 75.5q1.5 50 1.5 137v208zM439 97h40q15 0 28.5 3q13.5 3 24 11q10.5 8 17 22q6.5 14 6.5 37q0 41 -22.5 56q-22.5 15 -53.5 15l-40 0z" />
<glyph unicode="&#1114;" horiz-adv-x="703" d="M173 338h118v208h123v-208h79q30 0 59.5 -10q29.5 -10 53 -31q23.5 -21 38 -52.5q14.5 -31.5 14.5 -74.5q0 -43 -15 -75q-15 -32 -38.5 -53q-23.5 -21 -53 -31.5q-29.5 -10.5 -58.5 -10.5h-202v241h-118v-241h-123v546h123zM414 97h40q15 0 28.5 3q13.5 3 24 11q10.5 8 17 22q6.5 14 6.5 37q0 41 -22.5 56q-22.5 15 -53.5 15l-40 0z" />
<glyph unicode="&#1115;" horiz-adv-x="479" d="M188 768v-66h109v-80h-109v-121q14 20 40.5 39.5q26.5 19.5 64.5 19.5q28 0 53 -8.5q25 -8.5 43.5 -27q18.5 -18.5 29 -48q10.5 -29.5 10.5 -70.5v-406h-123v392q0 32 -16 49.5q-16 17.5 -45 17.5q-26 0 -41.5 -17.5q-15.5 -17.5 -15.5 -49.5v-392h-123v622h-55v80h55l0 66z" />
<glyph unicode="&#1116;" horiz-adv-x="425" d="M173 343l113 203h129l-129 -220l129 -326h-137l-76 212l-29 -56v-156h-123v546h123zM377 743l-127 -144h-69l88 144z" />
<glyph unicode="&#1118;" horiz-adv-x="434" d="M145 546l73 -419h2l70 419h129l-145 -615q-8 -34 -19 -56q-11 -22 -26.5 -34.5q-15.5 -12.5 -36 -17.5q-20.5 -5 -48.5 -5q-18 0 -33 1q-15 1 -32 3l0 93h45q14 0 20.5 10.5q6.5 10.5 6.5 25.5q0 3 -6.5 30.5q-6.5 27.5 -22.5 94.5q-16 67 -43.5 180.5q-27.5 113.5 -70.5 289.5zM159 722q0 -35 18 -43q18 -8 45 -8q29 0 49 8.5q20 8.5 20 42.5l64 0q0 -60 -31.5 -91.5q-31.5 -31.5 -99.5 -31.5q-34 0 -58.5 10q-24.5 10 -40 27q-15.5 17 -23 39q-7.5 22 -7.5 47z" />
<glyph unicode="&#1119;" horiz-adv-x="464" d="M170 97h124v449h120v-546h-138v-132h-88v132h-138v546l120 0z" />
<glyph unicode="&#1168;" horiz-adv-x="450" d="M328 722v138h101v-248h-242v-612h-137l0 722z" />
<glyph unicode="&#1169;" horiz-adv-x="385" d="M282 546v114h88v-211h-197v-449h-123l0 546z" />
<glyph unicode="&#8208;" horiz-adv-x="325" d="M290 300v-88h-255l0 88z" />
<glyph unicode="&#8209;" horiz-adv-x="325" d="M290 300v-88h-255l0 88z" />
<glyph unicode="&#8210;" horiz-adv-x="398" d="M371 405v-88h-345l0 88z" />
<glyph unicode="&#8211;" horiz-adv-x="398" d="M371 300v-88h-345l0 88z" />
<glyph unicode="&#8212;" horiz-adv-x="689" d="M667 300v-88h-641l0 88z" />
<glyph unicode="&#8213;" horiz-adv-x="689" d="M667 300v-88h-641l0 88z" />
<glyph unicode="&#8216;" horiz-adv-x="245" d="M185 460h-125v142q0 19 8 40q8 21 21.5 37.5q13.5 16.5 32.5 27.5q19 11 42 11h8v-47q-9 0 -19.5 -2.5q-10.5 -2.5 -19.5 -11q-9 -8.5 -15.5 -25q-6.5 -16.5 -6.5 -44.5l74 0z" />
<glyph unicode="&#8217;" horiz-adv-x="245" d="M60 722h125v-142q0 -20 -8 -40.5q-8 -20.5 -21.5 -37q-13.5 -16.5 -33 -27.5q-19.5 -11 -41.5 -11h-8v47q9 0 19.5 2.5q10.5 2.5 19.5 11q9 8.5 15.5 25q6.5 16.5 6.5 44.5l-74 0z" />
<glyph unicode="&#8218;" horiz-adv-x="163" d="M23 128h125v-142q0 -20 -8 -40.5q-8 -20.5 -21.5 -37q-13.5 -16.5 -33 -27.5q-19.5 -11 -41.5 -11h-8v47q9 0 19.5 2.5q10.5 2.5 19.5 11q9 8.5 15.5 25q6.5 16.5 6.5 44.5l-74 0z" />
<glyph unicode="&#8220;" horiz-adv-x="443" d="M185 460h-125v142q0 19 8 40q8 21 21.5 37.5q13.5 16.5 32.5 27.5q19 11 42 11h8v-47q-9 0 -19.5 -2.5q-10.5 -2.5 -19.5 -11q-9 -8.5 -15.5 -25q-6.5 -16.5 -6.5 -44.5l74 0zM383 460h-125v142q0 19 8 40q8 21 21.5 37.5q13.5 16.5 32.5 27.5q19 11 42 11h8v-47q-9 0 -19.5 -2.5q-10.5 -2.5 -19.5 -11q-9 -8.5 -15.5 -25q-6.5 -16.5 -6.5 -44.5l74 0z" />
<glyph unicode="&#8221;" horiz-adv-x="443" d="M258 722h125v-142q0 -20 -8 -40.5q-8 -20.5 -21.5 -37q-13.5 -16.5 -33 -27.5q-19.5 -11 -41.5 -11h-8v47q9 0 19.5 2.5q10.5 2.5 19.5 11q9 8.5 15.5 25q6.5 16.5 6.5 44.5l-74 0zM60 722h125v-142q0 -20 -8 -40.5q-8 -20.5 -21.5 -37q-13.5 -16.5 -33 -27.5q-19.5 -11 -41.5 -11h-8v47q9 0 19.5 2.5q10.5 2.5 19.5 11q9 8.5 15.5 25q6.5 16.5 6.5 44.5l-74 0z" />
<glyph unicode="&#8222;" horiz-adv-x="424" d="M55 128h125v-142q0 -20 -8 -40.5q-8 -20.5 -21.5 -37q-13.5 -16.5 -33 -27.5q-19.5 -11 -41.5 -11h-8v47q9 0 19.5 2.5q10.5 2.5 19.5 11q9 8.5 15.5 25q6.5 16.5 6.5 44.5l-74 0zM244 128h125v-142q0 -20 -8 -40.5q-8 -20.5 -21.5 -37q-13.5 -16.5 -33 -27.5q-19.5 -11 -41.5 -11h-8v47q9 0 19.5 2.5q10.5 2.5 19.5 11q9 8.5 15.5 25q6.5 16.5 6.5 44.5l-74 0z" />
<glyph unicode="&#8224;" horiz-adv-x="495" d="M309 752v-203h155v-107h-155v-529h-123v529h-155v107h155l0 203z" />
<glyph unicode="&#8225;" horiz-adv-x="495" d="M309 752v-203h155v-107h-155v-240h155v-107h-155v-182h-123v182h-155v107h155v240h-155v107h155l0 203z" />
<glyph unicode="&#8226;" horiz-adv-x="531" d="M267 546q38 0 72 -14.5q34 -14.5 59.5 -39.5q25.5 -25 40 -58.5q14.5 -33.5 14.5 -71.5q0 -38 -14.5 -72q-14.5 -34 -40 -59.5q-25.5 -25.5 -59.5 -40q-34 -14.5 -72 -14.5q-38 0 -71.5 14.5q-33.5 14.5 -58.5 40q-25 25.5 -39.5 59.5q-14.5 34 -14.5 72q0 38 14.5 71.5q14.5 33.5 39.5 58.5q25 25 58.5 39.5t71.5 14.5z" />
<glyph unicode="&#8230;" horiz-adv-x="800" d="M639 128h125v-128h-125zM27 128h125v-128h-125zM333 128h125v-128l-125 0z" />
<glyph unicode="&#8240;" horiz-adv-x="1120" d="M173 721q52 0 82 -14.5q30 -14.5 45 -39q15 -24.5 18.5 -56q3.5 -31.5 3.5 -65.5q0 -35 -3.5 -66.5q-3.5 -31.5 -18.5 -56q-15 -24.5 -45 -39q-30 -14.5 -82 -14.5q-52 0 -81.5 14.5q-29.5 14.5 -44 39q-14.5 24.5 -18 56q-3.5 31.5 -3.5 66.5q0 34 3.5 65.5q3.5 31.5 18 56q14.5 24.5 44 39q29.5 14.5 81.5 14.5zt0 0zM175 651q-20 0 -31 -7.5q-11 -7.5 -16.5 -21q-5.5 -13.5 -7 -33q-1.5 -19.5 -1.5 -43.5q0 -24 1.5 -44q1.5 -20 7 -33.5q5.5 -13.5 16.5 -21q11 -7.5 31 -7.5q19 0 30 7.5q11 7.5 16 21q5 13.5 6.5 33.5q1.5 20 1.5 44q0 24 -1.5 43.5q-1.5 19.5 -7 33q-5.5 13.5 -16 21q-10.5 7.5 -29.5 7.5zt0 0zM197 0l323 735h67l-322 -735zM620 366q52 0 82 -14.5q30 -14.5 45 -39q15 -24.5 18.5 -56q3.5 -31.5 3.5 -65.5q0 -35 -3.5 -66.5q-3.5 -31.5 -18.5 -56q-15 -24.5 -45 -39q-30 -14.5 -82 -14.5q-52 0 -81.5 14.5q-29.5 14.5 -44 39q-14.5 24.5 -18 56q-3.5 31.5 -3.5 66.5q0 34 3.5 65.5q3.5 31.5 18 56q14.5 24.5 44 39q29.5 14.5 81.5 14.5zt0 0zM622 296q-20 0 -31 -7.5q-11 -7.5 -16.5 -21q-5.5 -13.5 -7 -33q-1.5 -19.5 -1.5 -43.5q0 -24 1.5 -44q1.5 -20 7 -33.5q5.5 -13.5 16.5 -21q11 -7.5 31 -7.5q19 0 30 7.5q11 7.5 16 21q5 13.5 6.5 33.5q1.5 20 1.5 44q0 24 -1.5 43.5q-1.5 19.5 -7 33q-5.5 13.5 -16 21q-10.5 7.5 -29.5 7.5zt0 0zM949 366q52 0 82 -14.5q30 -14.5 45 -39q15 -24.5 18.5 -56q3.5 -31.5 3.5 -65.5q0 -35 -3.5 -66.5q-3.5 -31.5 -18.5 -56q-15 -24.5 -45 -39q-30 -14.5 -82 -14.5q-52 0 -81.5 14.5q-29.5 14.5 -44 39q-14.5 24.5 -18 56q-3.5 31.5 -3.5 66.5q0 34 3.5 65.5q3.5 31.5 18 56q14.5 24.5 44 39q29.5 14.5 81.5 14.5zt0 0zM951 296q-20 0 -31 -7.5q-11 -7.5 -16.5 -21q-5.5 -13.5 -7 -33q-1.5 -19.5 -1.5 -43.5q0 -24 1.5 -44q1.5 -20 7 -33.5q5.5 -13.5 16.5 -21q11 -7.5 31 -7.5q19 0 30 7.5q11 7.5 16 21q5 13.5 6.5 33.5q1.5 20 1.5 44q0 24 -1.5 43.5q-1.5 19.5 -7 33q-5.5 13.5 -16 21t-29.5 7.5z" />
<glyph unicode="&#8249;" horiz-adv-x="187" d="M167 320l-97 -66l97 -87v-107l-148 137v102l148 126z" />
<glyph unicode="&#8250;" horiz-adv-x="187" d="M167 299v-102l-148 -137v107l97 87l-97 66l0 105z" />
<glyph unicode="&#8260;" horiz-adv-x="1120" d="M197 0l323 735h67l-322 -735z" />
</font>
</defs>
</svg>
